<?xml version="1.0" standalone="no"?>
<!DOCTYPE svg PUBLIC "-//W3C//DTD SVG 20010904//EN"
 "http://www.w3.org/TR/2001/REC-SVG-20010904/DTD/svg10.dtd">
<svg version="1.0" xmlns="http://www.w3.org/2000/svg"
 width="1024.000000pt" height="1024.000000pt" viewBox="0 0 1024.000000 1024.000000"
 preserveAspectRatio="xMidYMid meet">
<metadata>
Created by potrace 1.14, written by Peter Selinger 2001-2017
</metadata>
<g transform="translate(0.000000,1024.000000) scale(0.100000,-0.100000)"
fill="#000000" stroke="none">
<path d="M4485 10210 c-284 -45 -417 -205 -418 -500 0 -58 3 -130 7 -161 l7
-56 -128 -17 c-153 -21 -462 -77 -589 -106 l-91 -21 12 -47 c7 -26 20 -103 30
-172 9 -69 20 -132 23 -140 3 -8 4 -21 3 -27 -1 -7 5 -77 13 -155 8 -79 23
-250 32 -380 l18 -237 25 -3 c34 -4 38 -26 7 -34 -28 -7 -31 -22 -20 -105 l6
-44 56 2 c165 7 239 7 229 1 -7 -5 -3 -8 10 -8 13 0 45 -8 72 -19 28 -10 52
-17 54 -15 8 9 107 -88 100 -98 -3 -7 -1 -8 5 -4 11 7 17 -6 13 -28 -1 -4 17
8 40 27 41 36 42 36 73 20 38 -19 143 -90 174 -118 13 -11 41 -49 62 -85 21
-36 46 -74 54 -85 l16 -20 -7 20 c-3 11 -10 25 -15 31 -5 7 -2 17 9 25 15 12
16 12 10 -3 -3 -10 1 -22 11 -30 15 -11 15 -11 5 3 -7 9 -10 19 -6 22 3 4 1
13 -5 20 -19 22 -1 29 27 10 24 -15 25 -15 12 0 -7 9 -10 17 -6 17 4 0 2 6 -4
14 -9 10 -9 16 -1 21 8 5 8 11 1 19 -7 8 -7 17 -1 24 7 9 7 9 -2 2 -8 -7 -17
-5 -27 4 -9 8 -20 15 -26 16 -5 1 -9 9 -7 18 2 14 0 14 -14 -3 -12 -14 -15
-15 -11 -4 3 9 1 21 -5 27 -6 6 -6 12 1 17 7 3 10 1 9 -6 -2 -7 3 -13 10 -14
7 0 17 -6 21 -14 7 -11 10 -11 17 0 16 26 12 37 -12 34 -19 -2 -22 1 -13 11 8
10 6 12 -11 9 -14 -3 -20 0 -17 8 2 7 13 11 25 11 12 -1 20 2 17 6 -2 4 -22 6
-44 5 -30 -1 -41 2 -44 16 -3 10 -2 20 1 24 12 11 10 34 -4 46 -12 9 -12 15
-2 28 11 14 11 14 -3 4 -9 -7 -20 -9 -25 -5 -4 4 -3 0 4 -9 12 -16 7 -29 -10
-29 -5 0 -7 4 -3 9 3 5 1 12 -5 16 -6 4 -7 12 -3 18 5 8 2 8 -9 0 -8 -7 -18
-10 -22 -6 -4 4 -4 -1 0 -11 5 -12 9 -14 14 -6 5 8 10 9 14 2 12 -19 -13 -23
-39 -6 -24 16 -37 32 -13 18 7 -4 8 -3 4 5 -6 9 -11 9 -24 -1 -10 -8 -13 -9
-9 -1 4 6 3 15 -3 18 -8 5 -7 12 2 23 12 15 11 16 -4 3 -10 -7 -18 -10 -18 -6
0 5 -8 1 -17 -7 -10 -8 -24 -13 -30 -12 -7 1 -20 2 -28 3 -8 0 -15 5 -15 10 0
5 14 7 30 6 17 -1 32 1 35 4 2 4 -13 7 -33 6 -20 -1 -41 1 -47 4 -17 9 -35 10
-30 1 3 -5 1 -12 -5 -15 -6 -4 -10 -3 -9 2 4 23 -2 43 -11 38 -6 -4 -8 -11 -4
-16 3 -6 -3 -5 -14 2 -15 9 -18 17 -11 25 7 8 6 14 -1 19 -6 4 -9 3 -8 -2 2
-4 -1 -10 -7 -11 -5 -2 -16 -9 -24 -15 -12 -9 -13 -9 -7 1 5 8 0 12 -13 12
-12 0 -21 5 -21 11 0 5 4 8 9 5 11 -7 8 20 -3 31 -4 4 -6 1 -4 -7 2 -8 -3 -14
-10 -12 -8 1 -11 -2 -7 -8 3 -6 0 -7 -9 -4 -9 3 -13 11 -9 18 4 6 -2 4 -12 -4
-11 -9 -16 -10 -11 -2 7 11 -5 17 -28 13 -5 -1 -6 5 -3 13 8 21 -3 27 -27 14
-18 -10 -19 -9 -9 4 15 18 5 32 -12 18 -9 -8 -14 -6 -19 5 -3 9 -2 13 3 10 5
-3 13 -1 16 5 4 6 3 10 -2 9 -4 -1 -11 0 -15 1 -13 4 -27 7 -38 9 -5 0 -10 5
-10 10 0 6 9 8 20 6 11 -2 22 0 24 4 7 10 -35 8 -53 -3 -9 -6 -12 -5 -8 1 4 6
-1 17 -10 24 -14 12 -15 11 -8 -11 4 -14 14 -34 21 -45 19 -27 17 -40 -3 -24
-11 10 -14 10 -9 2 4 -7 3 -13 -2 -13 -17 0 -22 13 -10 29 7 9 8 13 4 9 -5 -4
-15 -3 -23 3 -11 10 -11 15 -1 27 9 10 9 13 1 9 -15 -9 -23 13 -12 34 11 22 5
54 -12 54 -8 1 -13 7 -11 14 1 7 -1 18 -6 25 -5 6 -8 27 -8 48 1 20 -1 36 -4
36 -17 -1 -19 4 -9 23 8 15 8 19 0 15 -15 -10 -14 7 2 23 10 11 8 12 -9 3 -16
-9 -21 -8 -21 3 0 8 5 11 10 8 6 -3 8 9 5 30 -2 20 0 38 6 40 5 2 10 11 12 20
1 9 -2 15 -7 11 -5 -3 -7 -10 -4 -15 4 -5 1 -9 -6 -9 -6 0 -9 8 -6 20 3 11 1
23 -4 26 -5 3 -6 11 -2 17 4 7 6 25 4 40 -1 15 3 36 10 45 11 14 11 15 -1 5
-19 -18 -35 -16 -20 1 6 8 10 25 9 38 -2 13 0 28 4 35 4 6 2 15 -4 19 -8 4 -9
3 -5 -4 4 -7 1 -12 -7 -12 -10 0 -13 8 -9 26 3 16 -1 30 -9 35 -8 5 -9 9 -3 9
7 0 14 11 16 24 4 20 2 23 -16 19 -12 -3 -36 -7 -55 -9 -33 -3 -34 -3 -15 18
11 12 13 18 7 14 -7 -4 -13 -2 -13 4 0 6 -5 8 -12 4 -7 -4 -8 -3 -4 5 4 6 11
9 16 6 5 -3 12 -1 15 5 4 6 1 9 -5 8 -7 -2 -16 7 -20 19 -8 18 -6 21 11 18 16
-3 19 0 15 12 -5 12 -1 14 19 11 14 -3 28 -1 31 4 3 4 11 5 17 2 8 -5 8 -3 0
7 -7 7 -13 25 -13 39 0 14 6 32 13 39 7 9 7 11 1 8 -7 -4 -14 -1 -17 7 -5 14
18 31 36 27 5 -1 6 3 2 8 -3 6 -12 8 -19 5 -8 -3 -17 -1 -21 5 -4 7 0 8 10 5
9 -4 15 -3 13 2 -3 9 5 14 23 14 5 0 8 -4 4 -9 -3 -5 0 -13 6 -17 7 -4 9 -3 6
3 -9 14 17 35 29 25 5 -4 1 2 -9 14 -19 23 -14 36 11 26 14 -5 15 -3 4 10 -10
13 -9 18 5 29 16 13 17 12 5 -2 -10 -14 -10 -18 3 -23 9 -3 13 -2 10 4 -9 14
19 12 34 -2 10 -9 12 -9 7 -1 -3 6 -2 14 4 18 6 4 7 11 4 17 -4 6 -2 8 4 5 5
-4 8 -16 5 -27 -5 -18 0 -20 46 -20 30 0 50 4 46 9 -3 5 -1 13 5 16 6 4 10 3
9 -2 -5 -30 3 -43 26 -43 14 0 25 4 25 10 0 10 20 10 30 0 3 -3 14 -10 26 -17
16 -9 21 -8 21 3 0 7 -3 11 -7 9 -3 -2 -12 0 -18 4 -10 6 -9 12 5 27 10 11 14
14 9 7 -5 -8 -6 -17 -2 -20 4 -4 11 -1 16 7 7 10 10 11 10 3 0 -7 5 -13 11
-13 5 0 8 4 4 9 -3 5 0 13 7 17 7 4 10 4 6 -1 -4 -4 -2 -15 5 -23 9 -13 9 -14
0 -8 -8 4 -13 2 -13 -4 0 -6 -6 -8 -12 -4 -7 4 -5 -2 5 -13 9 -11 14 -23 10
-28 -5 -4 -2 -5 5 -1 10 6 10 11 1 22 -14 17 2 19 19 2 9 -9 11 -7 8 9 -3 12
1 20 10 20 8 0 13 -6 10 -13 -3 -7 2 -15 11 -18 13 -5 13 -9 2 -24 -13 -15
-12 -16 4 -3 13 10 15 17 6 27 -14 17 -9 17 26 4 15 -6 24 -6 20 -1 -3 5 -1
12 5 16 6 4 7 11 4 17 -4 7 -2 8 5 4 9 -6 9 -11 0 -22 -9 -11 -8 -15 5 -20 9
-3 13 -11 9 -18 -4 -7 -3 -8 5 -1 5 6 12 19 15 30 4 14 6 10 5 -10 0 -16 1
-32 2 -35 6 -16 10 -58 16 -165 l7 -120 19 58 c20 58 39 72 66 45 21 -21 13
-42 -38 -95 -45 -46 -49 -53 -33 -62 11 -6 13 -11 5 -11 -10 0 -12 -13 -7 -57
12 -113 15 -139 19 -197 5 -57 16 -91 16 -47 0 12 4 20 9 17 11 -7 9 13 -2 32
-5 6 -5 17 -1 24 4 7 3 8 -4 4 -8 -5 -12 1 -12 15 0 18 2 20 16 8 8 -7 13 -21
11 -31 -3 -10 -1 -18 4 -18 5 0 9 14 9 30 0 17 5 30 11 30 5 0 8 4 5 8 -2 4
21 7 52 6 31 -1 62 2 69 8 7 5 13 5 17 0 5 -9 404 -8 412 1 3 2 -21 21 -52 41
-58 39 -134 113 -134 131 0 12 86 68 97 63 5 -1 40 -24 78 -50 l70 -46 105 -6
c102 -5 199 -29 207 -51 2 -7 -34 -9 -101 -7 l-105 4 -50 -38 c-28 -22 -48
-45 -46 -51 3 -10 -62 -13 -304 -13 -285 0 -309 -1 -316 -17 -4 -10 -9 -76
-12 -148 -9 -224 39 -370 164 -494 136 -136 275 -177 643 -191 129 -5 330 -14
445 -20 198 -10 214 -10 288 9 175 46 328 166 435 341 29 46 52 81 52 77 0 -5
-17 -43 -37 -85 -29 -58 -58 -97 -118 -157 -85 -86 -156 -130 -273 -169 l-67
-23 -12 -69 c-6 -38 -19 -153 -29 -256 l-18 -186 -56 -7 c-30 -3 -64 -8 -75
-11 -14 -4 -16 -3 -7 4 20 14 -34 22 -147 22 -91 0 -325 32 -471 65 -75 17
-140 19 -140 5 0 -5 -6 -7 -14 -4 -10 4 -13 -4 -11 -33 1 -21 -2 -44 -8 -50
-17 -22 10 -15 60 17 52 33 65 32 126 -8 44 -30 43 -45 -4 -52 -19 -3 -33 -10
-32 -16 1 -7 -8 -9 -23 -6 -22 4 -24 2 -20 -21 3 -19 1 -24 -10 -20 -8 3 -14
9 -14 14 0 4 -7 5 -17 2 -12 -5 -14 -3 -8 8 7 12 6 12 -7 1 -14 -11 -18 -10
-26 4 -8 15 -9 15 -15 0 -4 -10 -3 -15 3 -11 6 3 10 1 10 -4 0 -6 -4 -11 -10
-11 -5 0 -10 -12 -10 -26 0 -22 -3 -25 -24 -20 -28 7 -40 -2 -25 -21 9 -10 8
-13 -5 -13 -9 0 -16 -5 -16 -11 0 -5 -4 -7 -10 -4 -6 4 -7 -1 -3 -11 4 -11 2
-15 -4 -11 -14 9 -37 -73 -36 -125 0 -16 -3 -28 -8 -28 -8 0 -76 -117 -81
-140 -2 -8 -7 -18 -12 -21 -5 -4 -8 -18 -8 -33 0 -14 -4 -26 -9 -26 -5 0 -9
-4 -9 -9 0 -4 -18 -40 -39 -79 -21 -39 -36 -73 -33 -76 3 -3 1 -6 -5 -6 -10 0
-38 -49 -35 -62 1 -5 -3 -8 -9 -8 -5 0 -8 -4 -5 -9 4 -5 2 -11 -2 -13 -9 -3
-67 -91 -64 -95 1 -2 -6 -11 -15 -21 -31 -33 -53 -62 -47 -62 4 0 -8 -14 -24
-32 -17 -17 -28 -36 -25 -42 3 -6 3 -8 -1 -5 -8 8 -54 -32 -49 -43 2 -4 -6 -9
-17 -13 -11 -3 -20 -12 -20 -19 0 -7 -15 -25 -32 -42 l-33 -29 30 35 30 35
-32 -29 c-18 -17 -33 -34 -33 -39 0 -16 -58 -67 -82 -71 -14 -2 -22 -10 -22
-20 2 -14 -1 -15 -14 -4 -12 10 -14 10 -8 1 4 -8 1 -13 -9 -13 -10 0 -13 -5
-9 -12 6 -10 5 -10 -8 0 -13 10 -18 9 -29 -5 -8 -9 -9 -14 -2 -10 6 4 14 3 17
-2 4 -5 -5 -8 -19 -7 -13 2 -22 -1 -19 -5 3 -5 -4 -9 -15 -9 -15 0 -19 -4 -14
-17 6 -16 5 -16 -10 -4 -15 12 -17 12 -11 -4 5 -11 4 -16 -3 -12 -5 4 -19 -1
-29 -9 -10 -9 -14 -13 -7 -10 7 4 10 -1 8 -11 -2 -10 -4 -22 -4 -26 -1 -5 -6
-5 -12 -1 -8 5 -8 9 1 14 8 5 7 9 -4 13 -9 4 -15 3 -13 -1 1 -4 -1 -7 -4 -7
-4 0 -31 -29 -60 -64 -30 -35 -78 -92 -107 -125 -29 -34 -50 -66 -48 -73 3 -6
-3 -17 -12 -25 -11 -9 -14 -10 -8 0 4 6 2 12 -3 12 -6 0 -11 -5 -11 -11 0 -5
-4 -8 -8 -5 -5 3 -9 -1 -10 -9 -1 -8 -3 -22 -4 -30 -1 -8 -5 -12 -9 -9 -5 2
-5 12 -2 22 6 14 4 14 -13 -2 -10 -11 -19 -23 -19 -28 0 -5 -7 -13 -15 -18
-11 -7 -12 -10 -2 -10 10 0 9 -4 -3 -16 -9 -10 -26 -14 -40 -11 -19 3 -23 1
-15 -8 5 -6 7 -14 4 -18 -3 -3 -1 -14 5 -25 8 -15 6 -24 -13 -41 -12 -12 -26
-18 -31 -14 -4 5 -6 3 -2 -2 8 -15 -8 -39 -21 -31 -5 3 -9 24 -8 47 2 34 0 39
-9 25 -7 -8 -15 -13 -18 -9 -4 3 -7 -1 -7 -11 0 -9 -4 -14 -10 -11 -5 3 -10
-1 -10 -9 0 -9 -6 -16 -12 -16 -12 0 -84 -70 -116 -111 -11 -14 -8 -16 23 -13
42 3 85 -27 85 -60 0 -12 5 -27 12 -34 19 -19 -5 -58 -41 -65 -17 -4 -33 -6
-35 -4 -2 1 -12 -6 -23 -15 -19 -17 -63 -15 -63 3 0 5 -16 15 -36 24 -19 8
-33 19 -29 25 14 23 -11 7 -29 -18 -11 -15 -16 -24 -11 -19 5 4 19 -2 31 -14
19 -17 21 -26 13 -41 -15 -27 -54 -20 -53 10 1 21 0 21 -18 5 -24 -22 -23 -35
6 -66 38 -41 40 -61 10 -107 -26 -39 -28 -40 -51 -25 -24 16 -96 27 -87 14 2
-4 -3 -10 -12 -13 -13 -5 -14 -9 -5 -20 9 -10 8 -15 -4 -20 -9 -3 -14 -10 -10
-15 3 -5 0 -13 -6 -17 -7 -4 -9 -3 -5 4 4 6 -1 10 -13 9 -11 0 -18 -4 -15 -8
2 -4 -7 -21 -21 -37 -14 -16 -25 -35 -25 -41 0 -6 -5 -11 -11 -11 -5 0 -7 -5
-4 -10 4 -6 11 -7 17 -4 7 5 8 2 4 -5 -5 -7 -10 -10 -14 -7 -3 3 -11 -2 -19
-12 -12 -16 -13 -16 -7 3 5 18 4 18 -6 2 -13 -20 -4 -41 13 -30 7 4 4 -5 -6
-21 -18 -27 -18 -27 2 -17 19 11 19 9 10 -18 -10 -28 -30 -34 -58 -17 -5 3
-11 -1 -15 -9 -3 -8 -10 -15 -16 -15 -6 0 -8 5 -4 12 4 7 3 8 -4 4 -9 -5 -9
-13 -2 -27 6 -10 14 -19 17 -19 3 0 3 3 0 7 -8 7 11 33 24 33 5 0 4 -9 -3 -20
-10 -16 -9 -23 10 -43 12 -13 20 -26 16 -29 -3 -3 1 -5 8 -5 7 1 14 -2 16 -8
1 -5 -4 -10 -10 -11 -20 -1 -39 17 -31 29 4 6 1 7 -6 3 -9 -6 -8 -12 4 -26 10
-11 12 -20 6 -24 -6 -4 -7 -14 -4 -23 4 -10 2 -14 -5 -9 -6 3 -14 1 -18 -5 -4
-7 -3 -9 3 -6 10 7 30 -10 32 -25 1 -5 3 -8 6 -8 3 0 5 3 4 6 0 4 5 11 13 15
10 7 10 9 0 9 -7 0 -10 5 -6 12 5 7 3 8 -6 3 -8 -5 -11 -3 -8 5 5 17 48 24 48
7 0 -18 -38 -77 -49 -77 -6 0 -14 6 -18 13 -4 7 -22 23 -40 35 l-32 22 4 -27
c1 -16 7 -27 13 -26 5 1 8 -7 5 -18 -4 -15 0 -22 17 -26 16 -4 18 -8 8 -14
-10 -7 -10 -12 -1 -27 13 -21 11 -58 -3 -55 -8 1 -13 -21 -17 -72 0 -11 -5
-23 -11 -27 -11 -8 -46 19 -46 35 0 6 9 2 20 -8 11 -10 23 -15 27 -12 3 4 1 7
-6 7 -7 0 -9 5 -6 10 4 6 1 9 -7 8 -7 -2 -12 4 -10 12 1 9 -7 4 -19 -10 -12
-14 -24 -25 -28 -25 -9 0 -1 -19 12 -27 11 -7 3 -12 -14 -10 -12 2 -5 -27 8
-32 7 -3 13 -11 13 -17 0 -8 -4 -8 -13 -1 -8 7 -18 6 -31 -4 -10 -7 -24 -11
-30 -7 -6 3 -8 3 -4 -2 4 -4 2 -15 -5 -23 -9 -13 -9 -14 0 -8 8 4 13 2 13 -4
0 -6 4 -9 8 -6 5 3 9 -2 9 -10 0 -10 -4 -11 -11 -4 -13 13 -29 13 -21 1 10
-17 -12 -21 -25 -6 -10 12 -10 15 1 15 11 0 11 2 -1 10 -8 5 -20 10 -25 10
-12 0 -32 -43 -41 -88 -4 -17 -11 -32 -16 -32 -5 0 -4 -9 2 -19 7 -14 7 -22
-2 -27 -6 -4 -8 -3 -4 4 3 6 2 13 -3 16 -17 11 -5 -27 13 -40 14 -10 16 -16 6
-31 -10 -15 -11 -16 -6 -1 7 22 -12 34 -27 18 -9 -10 -9 -11 2 -5 10 6 12 4 5
-6 -12 -20 -14 -40 -3 -33 5 3 9 0 9 -5 0 -6 -5 -11 -12 -11 -6 0 -3 -7 8 -15
10 -8 15 -15 9 -15 -5 0 -3 -5 5 -11 12 -9 11 -10 -7 -6 -17 4 -23 0 -24 -11
-1 -10 -2 -26 -3 -37 0 -11 2 -32 6 -48 4 -15 3 -25 -2 -22 -11 7 -7 -22 5
-32 4 -4 5 -3 2 3 -3 6 1 11 9 11 11 0 8 -7 -10 -24 -29 -27 -31 -34 -14 -51
9 -9 9 -17 0 -34 -12 -25 -11 -65 1 -85 5 -8 3 -13 -5 -13 -8 0 -9 -3 -2 -8 5
-4 11 -16 11 -27 3 -54 11 -140 13 -140 1 0 4 -16 6 -35 5 -44 12 -85 14 -85
1 0 4 -15 7 -34 2 -19 11 -40 18 -48 8 -7 12 -22 10 -32 -3 -14 1 -18 16 -14
21 6 39 -25 21 -36 -14 -9 -28 -71 -16 -71 5 0 9 -18 9 -39 0 -22 -3 -37 -7
-35 -8 5 -29 -58 -32 -97 -4 -58 -48 -65 -67 -10 -6 16 -18 32 -27 36 -9 3
-37 20 -62 37 l-46 32 46 49 c47 52 57 80 27 85 -9 2 -17 -1 -17 -7 0 -6 -12
-28 -28 -50 -24 -34 -31 -38 -57 -33 -60 12 -68 8 -93 -36 -34 -60 -57 -57
-88 15 -28 64 -113 171 -151 191 -41 22 -50 2 -25 -59 26 -60 27 -82 8 -98
-11 -9 -21 -3 -50 30 -35 38 -36 41 -19 55 10 7 14 14 9 14 -5 0 -2 8 5 18 13
15 12 16 -3 3 -10 -7 -15 -17 -12 -22 3 -5 0 -9 -6 -9 -6 0 -8 10 -6 22 3 13
8 50 11 82 4 37 16 74 32 99 23 37 24 40 7 58 -11 12 -24 17 -37 13 -10 -3
-31 -7 -45 -9 -25 -3 -25 -2 -7 12 16 11 17 16 7 22 -11 7 -11 9 2 14 9 4 16
11 16 17 0 6 -4 9 -8 6 -5 -3 -9 1 -9 9 0 10 4 12 12 5 14 -12 40 12 27 25 -4
5 -1 5 6 1 10 -6 10 -11 2 -21 -8 -10 -8 -15 0 -20 8 -5 8 -11 -1 -21 -6 -8
-9 -17 -5 -21 3 -3 6 0 6 8 0 10 2 11 8 2 6 -9 11 -6 21 8 9 16 10 19 0 13 -9
-5 -10 -2 -6 10 4 9 3 15 -2 12 -5 -3 -8 4 -8 17 1 12 -3 33 -7 47 -8 23 -8
24 10 10 14 -12 13 -8 -4 14 -20 26 -21 30 -6 41 14 9 14 14 4 20 -9 5 -11 4
-6 -3 4 -7 2 -12 -3 -12 -6 0 -11 5 -11 11 0 5 -6 7 -12 3 -9 -5 -9 -3 1 9 7
9 18 14 25 10 6 -4 5 1 -3 10 -15 18 -26 23 -16 7 3 -5 1 -10 -4 -10 -12 0
-15 23 -4 33 3 4 12 2 19 -4 9 -7 12 -6 10 7 -2 10 -10 18 -19 20 -10 1 -14
-2 -11 -8 4 -7 2 -8 -5 -4 -9 6 -9 11 0 22 6 7 15 12 18 9 4 -2 8 2 8 10 0 11
-4 12 -14 4 -10 -9 -13 -8 -13 4 0 9 -5 19 -10 22 -7 4 -9 -2 -4 -19 6 -25 -5
-33 -38 -27 -5 0 -9 -20 -10 -46 l-1 -48 -7 45 c-6 41 -7 39 -8 -28 -2 -52 1
-71 9 -66 9 5 10 -16 4 -80 -6 -76 -5 -85 9 -80 14 5 14 2 5 -25 -9 -24 -7
-66 6 -174 39 -335 115 -639 237 -949 48 -121 51 -127 81 -130 28 -3 30 -6 33
-48 4 -92 16 -119 127 -298 49 -77 68 -95 82 -72 10 17 79 -40 108 -90 l28
-49 -27 -14 -26 -14 75 -89 c99 -117 126 -142 162 -146 25 -3 29 -7 30 -33 0
-20 7 -33 22 -41 13 -6 20 -13 17 -16 -8 -9 97 -93 112 -90 8 2 19 -9 26 -23
17 -38 320 -258 356 -258 6 0 12 -4 12 -9 0 -5 5 -6 10 -3 6 3 10 1 10 -4 0
-11 116 -73 239 -127 57 -25 80 -30 98 -23 20 7 25 5 32 -15 8 -19 34 -31 153
-69 171 -56 376 -109 389 -101 5 3 9 13 9 23 0 30 28 20 45 -16 9 -18 19 -33
24 -33 4 0 81 -11 172 -25 235 -36 239 -36 238 -28 -5 28 3 44 19 41 11 -2 16
-11 14 -24 -4 -29 12 -31 280 -45 279 -14 455 -10 468 11 5 8 6 18 3 22 -7 12
16 38 33 38 8 0 14 -8 14 -18 0 -10 6 -26 13 -37 13 -17 22 -17 168 -6 264 21
628 74 640 94 4 5 12 7 17 3 26 -16 542 132 542 156 0 5 7 7 16 4 9 -4 13 -2
8 5 -4 7 -1 10 7 7 22 -8 108 34 282 139 362 217 572 367 785 560 73 67 83 79
77 102 -3 17 -2 21 3 13 7 -11 12 -11 25 2 8 9 19 16 24 16 16 0 83 75 83 93
0 14 35 42 50 40 7 -2 126 141 186 222 64 87 169 249 156 241 -11 -7 -26 40
-17 54 4 6 19 10 34 10 26 0 32 10 94 137 108 223 177 429 226 668 29 138 52
328 42 338 -5 5 -2 37 6 70 19 77 12 422 -12 622 -62 528 -225 1072 -431 1440
-234 419 -511 702 -936 954 l-37 22 -48 -70 c-26 -39 -55 -70 -63 -71 -22 0
-38 49 -49 148 -5 46 -11 85 -12 86 -2 2 -51 27 -109 56 -142 71 -268 142
-370 209 -49 32 -94 54 -106 53 -23 -3 -49 22 -39 38 4 6 -25 44 -63 85 -126
135 -195 305 -222 550 -12 107 -8 230 9 307 9 37 8 38 -23 46 -21 6 -31 14
-31 28 0 15 8 20 40 22 39 4 41 5 79 85 31 66 56 99 125 167 70 70 103 94 177
130 85 42 95 50 138 113 31 44 54 67 67 67 27 0 34 -25 16 -53 -8 -13 -12 -28
-9 -34 9 -14 88 -1 85 14 -9 46 -33 252 -33 287 0 46 -10 56 -56 56 -13 0 -24
1 -25 3 0 1 -2 34 -5 74 -5 63 -4 72 14 82 14 7 25 6 41 -5 l22 -16 -2 98 c-2
54 -4 93 -6 87 -3 -8 -17 -7 -48 2 -38 12 -45 12 -58 -3 -8 -9 -17 -30 -21
-46 l-7 -28 -40 57 c-22 32 -39 58 -37 60 9 7 148 38 173 39 22 1 31 -4 36
-19 3 -11 9 68 13 175 3 107 13 251 20 320 8 69 13 126 11 128 -6 7 -236 54
-271 56 -23 0 -39 5 -36 10 3 5 -7 7 -22 4 -14 -3 -26 -1 -26 4 0 6 -15 7 -36
3 -27 -5 -34 -3 -28 6 5 9 2 10 -9 6 -10 -4 -17 -1 -17 6 0 361 -25 459 -138
541 -117 86 -302 112 -922 132 -107 3 -276 15 -375 25 -210 23 -474 32 -560
19z m1123 -662 c-2 -17 -10 -23 -28 -23 -18 0 -26 6 -28 23 -3 19 1 22 28 22
27 0 31 -3 28 -22z m165 5 c-7 -2 -19 -2 -25 0 -7 3 -2 5 12 5 14 0 19 -2 13
-5z m-734 -14 c24 -9 31 -16 26 -28 -4 -9 -14 -35 -22 -58 -8 -24 -16 -43 -18
-43 -2 0 -9 26 -15 57 -7 32 -15 63 -17 70 -6 16 5 16 46 2z m1145 -15 c24 -9
2 -44 -24 -37 -11 3 -20 9 -20 13 0 5 9 6 20 3 27 -7 25 5 -2 17 -16 6 -18 9
-6 9 9 1 23 -2 32 -5z m330 -67 c4 4 4 -1 0 -11 -5 -14 -9 -15 -15 -4 -6 8 -9
9 -9 1 0 -6 -3 -20 -7 -30 -6 -16 -5 -17 13 -3 10 8 16 10 11 5 -4 -4 1 -17
10 -28 10 -11 12 -17 6 -13 -9 5 -13 1 -14 -11 0 -16 -1 -16 -8 2 -5 11 -7 23
-4 27 2 4 -4 5 -13 1 -15 -5 -16 -2 -9 23 4 16 8 35 8 41 0 9 4 9 12 3 7 -5
15 -7 19 -3z m46 9 c0 -2 -7 -7 -16 -10 -8 -3 -12 -2 -9 4 6 10 25 14 25 6z
m-1946 -211 c-25 -30 -50 -53 -54 -50 -5 3 -17 29 -28 58 -38 103 -42 92 45
136 l78 39 3 -64 c3 -64 2 -65 -44 -119z m1921 158 c1 -10 8 -17 15 -15 6 1 8
-3 5 -9 -10 -15 -28 4 -32 33 -2 12 -1 19 3 16 3 -3 7 -14 9 -25z m-477 -17
c2 -10 1 -43 -3 -72 -6 -49 -9 -54 -32 -54 -24 0 -25 1 -18 53 4 28 9 61 10
72 3 27 3 27 22 23 10 -2 19 -12 21 -22z m765 16 c6 -8 -75 -102 -87 -102 -8
0 -2 24 20 77 11 24 20 33 39 33 13 0 26 -3 28 -8z m-1305 -79 c18 -25 32 -46
30 -48 -24 -18 -132 -74 -136 -70 -10 10 53 166 66 164 4 0 22 -21 40 -46z
m971 40 c-3 -21 3 -33 17 -33 8 0 12 -5 9 -10 -4 -7 -14 -6 -28 1 -15 7 -14 4
6 -12 21 -16 25 -24 17 -34 -8 -9 -8 -15 0 -20 6 -3 7 -11 4 -17 -4 -7 -2 -8
5 -4 9 6 9 11 1 21 -8 9 -8 15 0 20 6 3 8 10 5 15 -2 4 9 7 25 6 17 0 28 -5
26 -11 -2 -5 -10 -8 -17 -7 -8 2 -10 0 -6 -5 5 -4 14 -8 20 -8 7 -1 11 -7 9
-15 -2 -8 0 -12 4 -8 4 4 14 2 23 -4 9 -7 5 0 -9 16 -23 26 -23 28 -5 24 13
-2 19 2 17 10 -1 8 2 11 8 7 7 -4 8 -11 1 -18 -10 -13 11 -52 22 -40 4 3 2 12
-4 19 -7 8 -6 14 2 20 7 4 9 3 5 -4 -3 -6 -2 -14 4 -17 7 -4 8 -11 1 -18 -10
-13 11 -52 22 -40 4 3 1 13 -6 22 -10 14 -10 14 4 3 14 -10 15 -17 6 -37 -9
-17 -15 -21 -24 -13 -7 6 -11 14 -8 18 3 4 -2 13 -9 19 -11 10 -14 9 -12 -4 1
-8 7 -20 14 -27 8 -8 8 -15 1 -24 -7 -8 -7 -14 1 -19 6 -4 9 -3 8 2 -2 4 2 10
7 11 6 2 16 9 24 15 8 7 12 7 9 2 -4 -6 -3 -17 2 -25 6 -10 3 -21 -8 -35 -16
-19 -16 -19 1 -6 9 7 17 10 17 6 0 -5 10 0 23 11 22 19 22 19 7 -1 -32 -42
-50 -84 -40 -90 5 -3 14 -3 20 0 6 3 7 -1 4 -9 -3 -9 -10 -14 -14 -11 -4 3
-13 -2 -19 -9 -9 -10 -9 -16 -1 -21 6 -4 9 -1 8 6 -2 7 3 14 10 15 6 1 15 3
20 4 4 1 11 2 16 1 5 -1 6 5 2 14 -4 11 -2 14 7 8 6 -4 18 -8 25 -9 26 -4 25
-14 -2 -14 -19 0 -29 -7 -36 -26 -6 -16 -14 -23 -22 -18 -8 4 -10 3 -5 -2 5
-5 12 -9 15 -9 43 -4 64 -33 32 -43 -8 -3 -10 0 -6 9 4 8 1 6 -8 -5 -8 -10
-28 -25 -43 -33 -54 -29 -189 -71 -246 -77 -53 -6 -58 -5 -54 11 3 10 8 44 12
77 4 32 8 68 10 80 2 11 9 57 15 101 6 44 13 91 15 105 2 14 7 52 11 85 5 33
9 63 10 68 1 4 2 16 3 27 0 11 6 20 11 20 6 0 9 -3 9 -7z m81 -28 c8 -1 14 -8
13 -14 -2 -6 1 -11 5 -11 17 0 21 14 9 29 -10 14 -10 14 5 3 14 -11 15 -17 5
-32 -6 -11 -16 -16 -22 -11 -5 4 -24 7 -42 6 -24 0 -30 2 -22 12 6 7 7 18 3
24 -5 9 -2 10 12 5 10 -4 26 -9 34 -11z m-2740 -9 c0 -2 -8 -10 -17 -17 -16
-13 -17 -12 -4 4 13 16 21 21 21 13z m2488 -68 c10 -35 17 -66 15 -70 -4 -7
-34 -16 -105 -32 -36 -8 -36 1 4 92 41 94 60 96 86 10z m-2803 12 c-3 -5 1
-10 10 -10 9 0 13 -5 10 -10 -5 -8 -11 -7 -21 1 -12 10 -11 29 2 29 3 0 2 -4
-1 -10z m2343 -79 c11 -6 7 -20 -18 -65 -29 -51 -50 -77 -50 -61 0 3 7 35 16
70 16 64 25 73 52 56z m-611 -61 c3 -32 0 -37 -40 -62 -24 -16 -46 -28 -49
-28 -7 0 -58 74 -58 83 0 15 77 46 110 44 31 -2 34 -5 37 -37z m1474 27 c-6
-8 -7 -18 -3 -22 4 -5 1 -5 -6 -1 -10 6 -10 11 -1 22 6 8 14 14 16 14 3 0 0
-6 -6 -13z m-1177 -32 c18 -13 18 -15 -2 -42 -11 -15 -29 -36 -39 -45 -19 -17
-21 -17 -48 12 -16 16 -27 31 -24 33 14 13 85 57 89 57 3 0 13 -7 24 -15z
m1157 -88 c-10 -9 -11 -8 -5 6 3 10 9 15 12 12 3 -3 0 -11 -7 -18z m-740 -43
c10 -12 14 -54 14 -155 l0 -139 140 0 c77 0 145 -4 151 -8 7 -4 -312 -7 -707
-7 -395 0 -719 2 -719 6 0 3 10 6 23 6 12 1 127 1 255 2 l232 1 0 60 c0 57 1
60 25 60 22 0 25 -5 31 -60 l7 -60 239 0 239 0 -19 28 c-11 15 -39 45 -61 67
-23 21 -41 43 -41 48 0 18 143 167 160 167 10 0 24 -7 31 -16z m-1761 -108 c0
-2 -8 -10 -17 -17 -16 -13 -17 -12 -4 4 13 16 21 21 21 13z m-55 -35 c3 -5 2
-12 -3 -15 -5 -3 -9 1 -9 9 0 17 3 19 12 6z m256 -38 c13 -16 12 -17 -3 -4
-17 13 -22 21 -14 21 2 0 10 -8 17 -17z m-152 -37 c9 -11 9 -16 -1 -22 -7 -4
-10 -4 -6 1 4 4 3 14 -3 22 -6 7 -9 13 -6 13 2 0 10 -6 16 -14z m180 -20 c-3
-3 -11 5 -18 17 -13 21 -12 21 5 5 10 -10 16 -20 13 -22z m2082 -7 c19 -10 16
-28 -12 -80 -9 -18 -8 -19 18 -13 15 4 30 8 32 10 2 2 12 -1 21 -6 17 -9 17
-13 3 -61 -12 -39 -13 -57 -4 -75 8 -19 8 -24 -3 -24 -7 0 -34 -3 -60 -6 l-47
-7 7 72 c5 57 4 75 -9 89 -11 13 -47 110 -47 128 0 4 84 -17 101 -27z m-2101
-7 c0 -5 -7 -9 -15 -9 -8 0 -12 4 -9 9 3 4 9 8 15 8 5 0 9 -4 9 -8z m-155 -11
c3 -5 2 -12 -3 -15 -5 -3 -9 1 -9 9 0 17 3 19 12 6z m42 -16 c0 -8 -4 -12 -9
-9 -5 3 -6 10 -3 15 9 13 12 11 12 -6z m-128 -2 c-3 -20 2 -26 11 -13 8 13 10
13 10 -2 0 -9 -4 -19 -9 -22 -12 -8 -34 21 -26 34 7 12 16 13 14 3z m2215
-105 c6 -5 1 -8 -11 -8 -25 0 -26 1 -16 26 5 14 8 15 11 3 3 -7 10 -17 16 -21z
m-2864 -176 c-8 -3 -7 -9 2 -20 12 -15 11 -16 -4 -3 -10 7 -15 17 -12 23 3 5
0 17 -7 26 -10 12 -7 11 9 -3 13 -11 19 -21 12 -23z m47 -127 c0 -8 -4 -12 -9
-9 -5 3 -6 10 -3 15 9 13 12 11 12 -6z m3163 -20 c0 -9 -51 -115 -55 -115 -3
0 -5 27 -5 60 l0 60 30 0 c17 0 30 -2 30 -5z m-3048 -87 c-9 -9 -9 -15 1 -27
11 -14 10 -14 -6 -2 -13 10 -15 17 -6 27 6 8 14 14 17 14 3 0 1 -5 -6 -12z
m-26 -44 c-3 -7 2 -15 10 -18 8 -3 14 -10 14 -16 0 -6 -10 -2 -22 9 -11 11
-25 18 -30 15 -9 -6 -11 9 -3 18 10 10 36 4 31 -8z m1 -49 c0 -8 -4 -12 -9 -9
-5 3 -6 10 -3 15 9 13 12 11 12 -6z m120 0 c0 -8 -4 -12 -9 -9 -5 3 -6 10 -3
15 9 13 12 11 12 -6z m-86 -28 c-6 -8 -7 -18 -3 -22 4 -5 1 -5 -6 -1 -10 6
-10 11 -1 22 6 8 14 14 16 14 3 0 0 -6 -6 -13z m2809 -72 c0 -58 -2 -65 -20
-65 -18 0 -20 7 -20 65 0 58 2 65 20 65 18 0 20 -7 20 -65z m-2375 15 c3 -5
-1 -10 -10 -10 -9 0 -13 5 -10 10 3 6 8 10 10 10 2 0 7 -4 10 -10z m150 -78
c-2 -9 -4 -19 -5 -22 -1 -3 -2 -8 -1 -12 0 -4 -6 -5 -14 -2 -8 4 -12 10 -9 15
3 5 1 9 -4 9 -6 0 -13 7 -16 16 -6 15 -3 14 21 -1 20 -13 25 -14 16 -3 -7 8
-10 18 -7 21 11 11 22 -2 19 -21z m-34 -49 c13 -16 12 -17 -3 -4 -10 7 -18 15
-18 17 0 8 8 3 21 -13z m72 -138 c-3 -9 -8 -14 -10 -11 -3 3 -2 9 2 15 9 16
15 13 8 -4z m77 -10 c14 -12 17 -22 10 -29 -6 -6 -5 -15 3 -25 10 -12 9 -14
-5 -8 -16 6 -43 -15 -32 -25 2 -3 -2 -8 -10 -11 -8 -3 -17 1 -20 10 -4 9 1 17
14 20 11 3 17 10 13 16 -3 5 -1 7 4 4 6 -4 13 2 16 13 3 14 1 18 -6 13 -7 -4
-16 -8 -22 -8 -5 -1 -9 -7 -7 -14 1 -7 -2 -9 -9 -6 -7 5 -7 11 -1 17 6 6 7 19
2 33 -7 18 -5 21 11 20 10 -1 28 -10 39 -20z m1514 -163 c2 -4 -4 -8 -15 -8
-10 0 -19 4 -19 8 0 4 6 8 14 8 8 0 17 -4 20 -8z m60 -134 c-32 -4 -60 -6 -62
-3 -2 2 19 7 48 11 l52 7 -49 51 -48 51 58 -55 58 -55 -57 -7z m-87 60 c-3 -7
-5 -2 -5 12 0 14 2 19 5 13 2 -7 2 -19 0 -25z m266 -224 l48 -59 -28 -12 c-15
-6 -28 -17 -28 -25 0 -7 -6 -13 -14 -13 -19 0 -73 107 -61 119 6 6 10 21 10
34 0 35 18 24 73 -44z m-1110 -65 c5 -4 -13 -6 -39 -5 -44 1 -47 -1 -51 -27
-3 -21 0 -27 9 -22 7 4 5 0 -4 -8 -10 -8 -14 -18 -10 -22 4 -5 1 -5 -5 -1 -7
4 -29 -1 -48 -10 -20 -9 -39 -14 -42 -10 -3 3 1 6 10 6 10 0 16 6 15 13 -2 6
3 11 10 9 8 -1 11 2 7 8 -4 6 -13 9 -20 6 -9 -3 -11 2 -8 15 4 15 9 17 18 9 9
-8 15 -8 20 0 10 16 28 12 22 -5 -4 -8 -2 -17 2 -19 5 -3 7 12 6 34 -1 21 0
39 4 38 26 -3 51 4 46 12 -6 10 42 -7 58 -21z m-51 -37 c-3 -17 -7 -20 -13
-11 -4 7 -6 16 -3 20 2 4 -2 9 -8 12 -7 3 -4 5 8 4 16 -1 19 -6 16 -25z m522
-1 c21 -11 44 -17 52 -14 15 5 44 -13 44 -27 0 -12 -62 -30 -87 -26 -58 12
-97 57 -66 75 10 6 18 11 18 11 1 0 18 -9 39 -19z m-679 -27 c0 -13 -7 -19
-24 -19 -30 0 -53 31 -32 44 21 13 56 -3 56 -25z m388 19 c-7 -2 -19 -2 -25 0
-7 3 -2 5 12 5 14 0 19 -2 13 -5z m-181 -45 c-7 -7 -12 -8 -12 -2 0 14 12 26
19 19 2 -3 -1 -11 -7 -17z m-281 -25 c13 -15 12 -15 -7 -5 -12 6 -25 8 -29 4
-5 -4 -5 -1 -1 6 10 16 21 15 37 -5z m429 -19 c0 -8 -7 -14 -15 -14 -15 0 -21
21 -9 33 10 9 24 -2 24 -19z m-450 -2 c0 -5 -7 -9 -15 -9 -8 0 -12 4 -9 9 3 4
9 8 15 8 5 0 9 -4 9 -8z m50 -42 c0 -5 -7 -10 -15 -10 -8 0 -15 5 -15 10 0 6
7 10 15 10 8 0 15 -4 15 -10z m690 -3 c0 -7 -7 -23 -16 -35 -13 -18 -19 -21
-30 -11 -17 14 -18 31 -2 47 16 16 48 15 48 -1z m-335 -27 c-5 -8 -11 -8 -21
1 -12 10 -12 14 -2 20 16 10 33 -5 23 -21z m1055 23 c0 -15 -63 -103 -74 -103
-7 0 -21 8 -30 19 -16 18 -15 20 26 55 39 32 78 47 78 29z m-1490 -7 c0 -3 -4
-8 -10 -11 -5 -3 -10 -1 -10 4 0 6 5 11 10 11 6 0 10 -2 10 -4z m5 -126 c7
-12 -12 -40 -26 -40 -10 0 -12 34 -2 43 9 10 21 9 28 -3z m29 -105 c3 -9 -1
-18 -10 -22 -19 -7 -39 11 -30 26 10 16 33 13 40 -4z m230 -16 c11 -16 12 -28
4 -49 -17 -49 -33 -56 -73 -29 -19 13 -37 30 -40 37 -18 48 78 85 109 41z
m104 2 c11 -6 10 -11 -3 -25 -22 -21 -53 -3 -34 20 13 16 19 17 37 5z m387 -1
c-12 -5 -14 -9 -6 -9 8 -1 12 -4 8 -7 -9 -9 -28 6 -22 17 4 5 14 9 23 8 14 0
13 -2 -3 -9z m-807 -78 c2 -7 -4 -15 -13 -18 -21 -8 -40 17 -22 28 15 10 30 5
35 -10z m312 -43 c0 -5 -7 -9 -15 -9 -15 0 -20 12 -9 23 8 8 24 -1 24 -14z m4
-33 c-3 -8 -13 -12 -25 -9 -23 6 -15 23 11 23 12 0 17 -5 14 -14z m-289 -26
c3 -5 -1 -10 -9 -10 -9 0 -16 5 -16 10 0 6 4 10 9 10 6 0 13 -4 16 -10z m705
-56 c0 -16 -26 -19 -35 -4 -3 6 -4 14 0 20 8 13 35 1 35 -16z m593 -7 c33 -34
70 -79 90 -107 18 -25 24 -90 8 -90 -5 0 -12 -11 -15 -25 -4 -14 -10 -25 -14
-25 -7 0 -63 176 -62 196 0 7 -11 22 -25 35 -13 13 -25 27 -25 32 0 14 21 7
43 -16z m-843 -7 c0 -4 -6 -13 -14 -19 -18 -15 -41 10 -25 26 12 12 39 7 39
-7z m-470 -13 c0 -6 3 -7 7 -4 9 10 33 -13 33 -33 0 -36 -91 -48 -105 -13 -7
19 12 43 34 44 10 0 12 2 3 6 -6 2 -10 9 -7 13 7 12 35 1 35 -13z m1000 -107
c8 -5 11 -10 5 -10 -5 0 -17 5 -25 10 -8 5 -10 10 -5 10 6 0 17 -5 25 -10z
m-555 -90 c10 -16 -5 -71 -22 -77 -28 -11 -38 14 -20 52 17 35 31 43 42 25z
m802 4 c-3 -3 -12 -4 -19 -1 -8 3 -5 6 6 6 11 1 17 -2 13 -5z m-969 -47 c2
-10 -3 -17 -12 -17 -18 0 -29 16 -21 31 9 14 29 6 33 -14z m-156 -82 c0 -5 -5
-11 -11 -13 -6 -2 -11 4 -11 13 0 9 5 15 11 13 6 -2 11 -8 11 -13z m-139 -37
c12 -7 23 -14 25 -15 9 -4 -25 -43 -38 -43 -24 0 -44 38 -29 56 14 17 14 17
42 2z m411 -64 c4 -9 2 -22 -3 -28 -5 -6 -8 -26 -6 -43 3 -42 -18 -62 -41 -38
-20 19 -22 88 -4 110 16 20 46 19 54 -1z m886 1 c0 -8 -4 -15 -10 -15 -5 0
-10 7 -10 15 0 8 5 15 10 15 6 0 10 -7 10 -15z m-1105 -5 c3 -5 1 -10 -4 -10
-6 0 -11 5 -11 10 0 6 2 10 4 10 3 0 8 -4 11 -10z m468 -13 c-2 -4 -3 -11 -3
-17 0 -5 -7 -10 -15 -10 -8 0 -14 6 -12 13 1 6 -6 11 -15 11 -10 -1 -15 2 -13
7 7 10 61 7 58 -4z m505 -4 c2 -7 -4 -16 -12 -19 -19 -7 -49 14 -40 28 8 13
46 6 52 -9z m-577 -36 c-1 -4 -1 -15 -1 -25 0 -9 -10 -23 -21 -31 -18 -10 -26
-11 -45 0 -28 14 -31 34 -8 43 9 4 18 5 18 4 1 -2 7 -14 13 -28 11 -24 12 -24
12 -2 1 12 6 22 12 22 6 0 8 7 5 16 -3 9 -1 14 5 12 6 -2 10 -7 10 -11z m795
-72 c5 -11 19 -25 32 -31 l23 -12 -26 -20 c-40 -32 -119 -11 -145 37 -8 16 -4
26 22 55 l31 35 27 -22 c15 -12 31 -31 36 -42z m-1699 28 c3 -9 -8 -10 -35 -4
-2 1 0 6 3 12 8 12 27 7 32 -8z m491 0 c-2 -10 -10 -18 -18 -18 -8 0 -16 8
-18 18 -2 12 3 17 18 17 15 0 20 -5 18 -17z m-570 -75 c15 -15 -2 -38 -28 -38
-22 0 -32 24 -17 39 14 14 30 14 45 -1z m1273 -7 c-7 -5 -11 -14 -7 -20 5 -7
1 -9 -9 -5 -12 5 -13 9 -4 20 6 8 17 14 23 14 6 0 5 -4 -3 -9z m-1618 -61 c-6
-22 -33 -49 -33 -32 0 6 4 23 10 37 11 30 31 26 23 -5z m745 -1 c-2 -6 -8 -10
-13 -10 -5 0 -11 4 -13 10 -2 6 4 11 13 11 9 0 15 -5 13 -11z m1692 -17 c0 -5
-7 -9 -15 -9 -8 0 -12 4 -9 9 3 4 9 8 15 8 5 0 9 -4 9 -8z m-1034 -14 c4 -7 4
-10 -1 -6 -4 4 -15 2 -24 -5 -14 -11 -14 -10 -2 6 16 20 18 21 27 5z m-682
-49 c-8 -14 -34 -11 -34 4 0 8 3 17 7 20 9 9 34 -13 27 -24z m-660 15 c13 -5
14 -9 5 -20 -13 -16 -29 -9 -29 12 0 16 2 16 24 8z m1592 -15 c3 -6 1 -16 -6
-22 -10 -9 -11 -9 -6 0 3 6 -2 16 -11 22 -16 9 -16 10 -1 11 9 0 20 -5 24 -11z
m-1865 -12 c-6 -8 -9 -17 -6 -20 3 -4 2 -5 -2 -2 -10 8 -33 -16 -26 -28 4 -6
1 -7 -6 -2 -9 5 -5 15 15 36 28 29 46 40 25 16z m1834 -7 c3 -6 -1 -7 -9 -4
-18 7 -21 14 -7 14 6 0 13 -4 16 -10z m253 -33 c8 -9 6 -16 -8 -24 -14 -10
-21 -9 -31 3 -10 13 -10 17 2 25 19 12 25 11 37 -4z m2019 1 c29 -37 22 -64
-35 -133 l-25 -30 6 79 c8 87 28 118 54 84z m-3286 -24 c10 -13 10 -17 -2 -24
-17 -11 -45 13 -35 29 10 15 21 14 37 -5z m849 -4 c0 -11 -4 -20 -8 -20 -4 0
-8 9 -8 20 0 11 4 20 8 20 4 0 8 -9 8 -20z m1606 -6 c1 -9 0 -13 -4 -10 -3 4
-7 14 -8 22 -1 9 0 13 4 10 3 -4 7 -14 8 -22z m-3326 13 c0 -2 -10 -12 -22
-23 l-23 -19 19 23 c18 21 26 27 26 19z m1667 -18 c2 -16 -1 -19 -9 -11 -5 5
-7 15 -4 21 10 15 12 14 13 -10z m-1107 -13 c0 -3 -4 -8 -10 -11 -5 -3 -10 -1
-10 4 0 6 5 11 10 11 6 0 10 -2 10 -4z m-625 -46 c-30 -32 -39 -56 -24 -65 5
-3 -7 -22 -26 -40 -41 -41 -55 -46 -26 -9 23 30 27 48 9 39 -7 -4 -2 3 11 14
13 12 20 21 15 21 -4 0 7 16 26 35 19 19 36 35 39 35 3 0 -8 -14 -24 -30z
m3045 8 c0 -16 -3 -19 -11 -11 -6 6 -8 16 -5 22 11 17 16 13 16 -11z m409 -8
c12 0 13 -3 15 -77 0 -28 -2 -49 -5 -47 -8 4 -19 -21 -19 -42 0 -8 6 -11 18
-7 22 8 13 -1 -17 -17 -19 -10 -22 -10 -16 1 6 9 3 10 -9 6 -14 -6 -17 -3 -12
8 3 9 -1 18 -9 21 -8 4 -12 10 -9 15 5 8 11 44 18 99 1 9 6 22 11 29 5 10 4
12 -3 7 -14 -8 -15 -5 -5 20 6 15 7 16 18 0 7 -9 17 -16 24 -16z m-2406 -12
c18 1 39 -3 47 -8 26 -16 -18 -24 -59 -10 -26 8 -44 9 -57 3 -32 -17 -104 -15
-104 2 0 20 106 38 128 21 7 -5 27 -9 45 -8z m1097 -40 c0 -26 -13 -16 -17 13
-2 12 1 18 7 14 5 -3 10 -16 10 -27z m651 22 c18 0 9 -15 -16 -26 -19 -9 -27
-9 -34 0 -13 16 7 39 27 31 8 -3 18 -5 23 -5z m459 -6 c0 -8 -5 -12 -10 -9 -6
4 -8 11 -5 16 9 14 15 11 15 -7z m-1184 -19 c-2 -7 1 -18 7 -25 9 -10 9 -11
-3 -8 -8 3 -16 17 -17 32 -1 16 2 24 8 20 6 -3 8 -12 5 -19z m858 16 c9 -14
-4 -41 -19 -41 -18 0 -28 17 -21 35 6 17 32 20 40 6z m-2584 -21 c12 -23 7
-25 -21 -9 -11 5 -17 14 -14 20 10 15 23 11 35 -11z m105 -63 c0 -26 -20 -25
-23 2 -3 16 1 22 10 19 7 -3 13 -12 13 -21z m105 -2 c0 -8 -4 -15 -9 -15 -13
0 -22 16 -14 24 11 11 23 6 23 -9z m516 0 c19 -15 19 -16 -1 -13 -11 2 -23 7
-26 12 -11 14 -29 -3 -22 -22 6 -15 5 -15 -12 1 -15 16 -16 20 -4 28 21 13 43
11 65 -6z m-1180 -20 c-1 -8 -5 -17 -8 -21 -5 -4 -4 16 1 34 3 9 9 -1 7 -13z
m2934 -1 c0 -8 -19 -13 -24 -6 -3 5 1 9 9 9 8 0 15 -2 15 -3z m-800 -8 c0 -2
-8 -10 -17 -17 -16 -13 -17 -12 -4 4 13 16 21 21 21 13z m1300 -6 c0 -5 -4
-10 -10 -10 -5 0 -10 5 -10 10 0 6 5 10 10 10 6 0 10 -4 10 -10z m-2604 -15
c4 -8 1 -22 -5 -29 -9 -11 -9 -15 1 -19 7 -2 10 -7 7 -11 -12 -12 -39 6 -45
31 -9 35 30 60 42 28z m2658 -1 c3 -8 2 -12 -4 -9 -6 3 -10 10 -10 16 0 14 7
11 14 -7z m-3084 -4 c13 -8 12 -11 -5 -24 -22 -16 -41 -6 -32 18 7 18 16 20
37 6z m-120 -36 c0 -8 -7 -14 -15 -14 -15 0 -21 21 -9 33 10 9 24 -2 24 -19z
m644 4 c-5 -8 -2 -9 9 -5 20 8 33 -11 18 -26 -8 -8 -15 -7 -27 5 -14 14 -13
38 2 38 3 0 2 -5 -2 -12z m2919 -43 c-3 -9 -8 -14 -10 -11 -3 3 -2 9 2 15 9
16 15 13 8 -4z m46 -30 c7 3 8 0 5 -9 -8 -20 -7 -20 -30 6 -14 17 -15 20 -2 9
9 -7 22 -10 27 -6z m-1395 -14 c3 -5 -5 -11 -19 -13 -26 -5 -35 6 -12 15 19 8
25 8 31 -2z m699 -5 c4 -10 0 -12 -15 -8 -15 4 -17 7 -6 13 17 11 15 11 21 -5z
m-406 -42 c5 -16 -22 -35 -41 -28 -27 10 -20 40 11 39 14 0 28 -5 30 -11z
m373 -13 c0 -12 -20 -25 -27 -18 -7 7 6 27 18 27 5 0 9 -4 9 -9z m-2746 -7
c25 -9 19 -34 -7 -34 -30 0 -40 10 -26 27 13 15 12 15 33 7z m2926 -8 c0 -3
-4 -8 -10 -11 -5 -3 -10 -1 -10 4 0 6 5 11 10 11 6 0 10 -2 10 -4z m-2166 -22
c20 -8 21 -28 1 -44 -12 -10 -13 -16 -1 -39 31 -58 92 -99 165 -110 l46 -6
-40 -21 c-56 -29 -86 -90 -87 -178 -1 -36 -3 -66 -4 -66 -2 0 -11 15 -20 33
-44 87 -144 147 -246 147 l-51 0 59 39 c32 21 69 49 81 62 34 38 66 117 58
146 -4 17 -1 29 7 34 16 10 13 10 32 3z m2121 -4 c3 -5 1 -10 -4 -10 -6 0 -11
5 -11 10 0 6 2 10 4 10 3 0 8 -4 11 -10z m-1435 -10 c0 -5 -2 -10 -4 -10 -3 0
-8 5 -11 10 -3 6 -1 10 4 10 6 0 11 -4 11 -10z m984 4 c9 -3 16 -10 16 -16 0
-5 -4 -6 -10 -3 -5 3 -10 0 -10 -7 0 -9 -3 -9 -10 2 -18 27 -13 35 14 24z
m551 -14 c3 -5 1 -10 -4 -10 -6 0 -11 5 -11 10 0 6 2 10 4 10 3 0 8 -4 11 -10z
m-3233 -42 c-15 -15 -26 -4 -18 18 5 13 9 15 18 6 9 -9 9 -15 0 -24z m-342 -4
c11 -12 11 -18 -2 -30 -13 -13 -16 -12 -32 5 -19 21 -14 41 8 41 8 0 19 -7 26
-16z m2889 -39 c15 4 21 2 21 -9 0 -8 9 -20 20 -26 11 -6 20 -17 20 -25 0 -19
-40 -15 -51 6 -5 10 -16 15 -27 12 -27 -7 -48 22 -30 40 8 9 15 11 19 5 4 -6
16 -7 28 -3z m-1651 -27 c-6 -18 -12 -39 -14 -45 -4 -16 -54 -17 -54 -2 0 5 5
7 10 4 6 -3 10 1 10 9 0 9 9 21 20 28 11 7 20 18 20 25 0 7 4 13 9 13 5 0 5
-14 -1 -32z m-883 -19 c-5 -7 -11 -6 -21 2 -11 9 -12 15 -2 26 10 12 13 12 20
-1 5 -9 6 -21 3 -27z m3422 15 c5 -14 -11 -33 -28 -34 -4 0 -4 34 0 48 3 9 23
-1 28 -14z m-195 -16 c-6 -6 -16 -7 -22 -3 -9 6 -9 9 1 16 17 10 34 0 21 -13z
m125 0 c-3 -8 -6 -5 -6 6 -1 11 2 17 5 13 3 -3 4 -12 1 -19z m-3310 -106 c-13
-13 -19 -13 -32 -2 -23 19 0 44 27 29 18 -10 19 -12 5 -27z m3138 18 c-3 -5
-10 -10 -16 -10 -5 0 -9 5 -9 10 0 6 7 10 16 10 8 0 12 -4 9 -10z m-3417 -22
c18 -16 15 -42 -9 -56 -43 -27 -97 22 -63 59 18 19 44 18 72 -3z m2572 -17 c0
-14 -18 -23 -30 -16 -6 4 -8 11 -5 16 8 12 35 12 35 0z m2370 -63 l18 -58 -23
0 c-19 0 -24 7 -30 46 -3 26 -9 53 -12 61 -4 10 0 14 12 12 11 -3 23 -24 35
-61z m-4850 37 c0 -8 -4 -15 -10 -15 -5 0 -10 7 -10 15 0 8 5 15 10 15 6 0 10
-7 10 -15z m270 -39 c0 -6 -11 -21 -24 -33 -32 -30 -80 -19 -84 20 -3 27 -1
28 63 40 22 4 45 -10 45 -27z m320 -6 c0 -5 -2 -10 -4 -10 -3 0 -8 5 -11 10
-3 6 -1 10 4 10 6 0 11 -4 11 -10z m2046 -22 c5 -7 8 -28 7 -47 -1 -42 -37
-79 -59 -60 -11 9 -11 15 2 34 9 14 13 33 9 44 -3 12 -3 25 0 31 9 14 32 13
41 -2z m739 -38 c-4 -6 -14 -9 -22 -5 -13 4 -14 3 -3 -10 7 -8 18 -15 25 -15
13 0 25 -30 25 -61 0 -26 -47 -66 -86 -74 -29 -5 -41 -2 -60 16 -13 12 -34 27
-46 33 -29 14 -29 33 -2 49 12 7 33 20 48 31 32 23 40 18 26 -18 -19 -51 20
-84 63 -52 13 10 15 21 11 45 -4 17 -11 34 -17 38 -6 4 -8 0 -4 -10 8 -22 -15
-12 -30 12 -11 17 -8 22 20 40 27 17 34 18 46 7 7 -8 10 -19 6 -26z m-3734 14
c10 -13 10 -17 -2 -24 -17 -11 -45 13 -35 29 10 15 21 14 37 -5z m2889 -12 c0
-16 9 -37 19 -46 28 -25 34 -55 10 -49 -11 3 -26 0 -34 -7 -20 -17 -29 -7 -16
18 8 15 7 23 -4 32 -18 15 -20 51 -3 68 19 19 28 14 28 -16z m-3006 -4 c56
-36 60 -84 10 -107 -41 -18 -74 8 -74 59 0 21 5 42 10 45 6 4 8 11 5 16 -10
16 12 10 49 -13z m779 -18 c3 -11 1 -18 -4 -14 -5 3 -9 12 -9 20 0 20 7 17 13
-6z m37 -20 c0 -29 28 -92 38 -86 5 3 8 -5 8 -16 -1 -14 13 -31 39 -50 52 -36
94 -48 163 -44 46 3 53 1 37 -8 -37 -21 -97 -85 -90 -97 4 -6 2 -15 -4 -19
-22 -13 -32 -86 -21 -157 5 -38 10 -72 10 -78 0 -5 -14 7 -31 28 -39 48 -131
110 -192 131 -26 9 -74 17 -107 18 -33 2 -60 4 -60 5 0 1 14 16 30 33 17 17
30 28 30 25 0 -3 13 7 30 22 16 15 38 51 49 80 17 47 17 52 3 67 -15 15 -15
16 0 16 18 0 45 63 29 68 -5 2 -3 15 5 30 8 15 14 33 14 40 0 6 5 12 10 12 6
0 10 -9 10 -20z m2401 -1 c9 -17 8 -23 -2 -30 -28 -17 -44 -2 -34 31 8 26 21
25 36 -1z m-2910 -10 c23 -16 27 -24 19 -34 -27 -33 -110 -18 -110 21 0 13 30
32 53 33 5 1 22 -8 38 -20z m466 -14 c0 -8 -4 -15 -9 -15 -10 0 -11 14 -1 23
9 10 10 9 10 -8z m4473 -34 c0 -5 9 -13 20 -16 24 -8 74 -81 65 -95 -4 -6 -26
-10 -51 -10 -36 0 -44 3 -44 19 0 10 -3 39 -6 65 -5 31 -3 46 5 46 6 0 11 -4
11 -9z m-1620 -37 c0 -21 -21 -27 -38 -11 -13 13 -13 19 -2 32 10 12 16 13 26
4 8 -6 14 -17 14 -25z m-2666 -10 c3 -8 -1 -14 -8 -14 -16 0 -38 24 -30 33 9
9 32 -3 38 -19z m2428 11 c0 -5 -5 -11 -11 -13 -6 -2 -11 4 -11 13 0 9 5 15
11 13 6 -2 11 -8 11 -13z m-3692 -34 c-5 -10 -7 -21 -4 -23 2 -3 -2 -11 -11
-18 -12 -10 -15 -10 -15 4 0 11 -5 14 -12 10 -7 -4 -8 -3 -4 5 4 6 11 9 16 6
8 -5 25 24 21 38 -1 5 3 6 9 2 7 -4 7 -12 0 -24z m3809 -5 c9 -10 8 -16 -4
-26 -19 -16 -41 1 -32 24 8 20 21 20 36 2z m606 -36 c-14 -15 -21 -17 -32 -9
-22 19 -15 29 19 29 30 0 31 0 13 -20z m-4395 -51 c-13 -24 -25 -30 -43 -23
-33 12 -2 56 34 47 15 -4 16 -9 9 -24z m130 -4 c10 -18 11 -28 3 -36 -17 -17
-32 -1 -30 31 2 37 9 38 27 5z m5141 -7 c9 -7 39 -44 68 -81 87 -113 75 -152
-23 -82 -27 19 -44 35 -37 35 9 0 9 5 1 18 -48 79 -51 86 -41 120 2 6 19 1 32
-10z m-4867 -43 c13 -52 -21 -73 -55 -33 -19 21 -19 22 2 44 25 26 45 22 53
-11z m2663 -7 c-3 -7 -5 -2 -5 12 0 14 2 19 5 13 2 -7 2 -19 0 -25z m-3020
-20 c14 -23 13 -48 -1 -48 -17 0 -48 39 -40 52 8 12 32 10 41 -4z m3845 -16
c-3 -17 -1 -23 7 -18 6 4 11 14 11 22 0 8 5 14 10 14 14 0 12 -16 -5 -50 -20
-39 -29 -38 -49 4 -21 45 -20 54 7 54 20 0 23 -5 19 -26z m263 18 c3 -5 2 -10
-4 -10 -5 0 -13 5 -16 10 -3 6 -2 10 4 10 5 0 13 -4 16 -10z m-550 -40 c-3 -5
-10 -10 -16 -10 -5 0 -9 5 -9 10 0 6 7 10 16 10 8 0 12 -4 9 -10z m-320 -10
c3 -5 1 -10 -6 -10 -7 0 -2 -11 11 -24 26 -28 21 -56 -10 -56 -23 0 -27 29 -8
48 8 8 8 12 1 12 -6 0 -13 9 -16 20 -5 21 16 29 28 10z m-2701 -15 c-4 -8 -8
-15 -10 -15 -2 0 -4 7 -4 15 0 8 4 15 10 15 5 0 7 -7 4 -15z m5146 -45 c26
-21 43 -45 54 -81 19 -58 14 -70 -27 -62 -22 4 -34 19 -64 80 -31 62 -34 76
-22 84 19 12 16 13 59 -21z m-1968 -55 c-1 -18 -17 -15 -46 8 -41 33 -26 57
16 25 16 -13 30 -27 30 -33z m-3742 14 c0 -5 -7 -9 -15 -9 -15 0 -20 12 -9 23
8 8 24 -1 24 -14z m-92 -1 c-3 -7 -15 -12 -29 -13 -13 0 -31 -4 -39 -9 -13 -9
-13 -8 -1 7 7 9 17 15 21 12 5 -3 11 -1 15 5 9 14 38 13 33 -2z m4194 -3 c0
-5 -5 -11 -11 -13 -6 -2 -11 4 -11 13 0 9 5 15 11 13 6 -2 11 -8 11 -13z
m-4012 -25 c0 -5 -2 -10 -4 -10 -3 0 -8 5 -11 10 -3 6 -1 10 4 10 6 0 11 -4
11 -10z m231 -62 c16 -18 29 -35 29 -38 0 -34 -120 -77 -166 -59 -17 7 -17 8
-1 8 11 1 17 9 17 25 0 13 4 26 8 28 4 2 18 18 31 36 28 40 44 40 82 0z m328
18 c14 -16 4 -46 -15 -46 -20 0 -36 34 -22 48 15 15 23 15 37 -2z m-539 -11
c0 -8 -4 -15 -10 -15 -5 0 -10 7 -10 15 0 8 5 15 10 15 6 0 10 -7 10 -15z
m4175 6 c3 -5 2 -12 -3 -15 -5 -3 -9 1 -9 9 0 17 3 19 12 6z m1082 -26 c-3
-19 -1 -38 5 -41 17 -11 30 -56 18 -68 -8 -8 -13 -7 -20 4 -6 9 -5 17 1 21 16
10 16 15 -5 38 -25 28 -32 81 -10 81 12 0 15 -8 11 -35z m-1919 -19 c4 -19
-16 -39 -30 -30 -4 3 -8 16 -8 30 0 19 5 25 17 22 10 -2 19 -12 21 -22z
m-2595 -26 c-3 -11 -12 -25 -21 -32 -13 -11 -15 -10 -10 3 3 9 2 22 -2 30 -5
8 -4 19 2 26 15 18 37 -2 31 -27z m-75 11 c-10 -4 -14 -16 -12 -35 3 -27 2
-28 -13 -13 -22 22 -3 70 23 60 15 -6 16 -7 2 -12z m3295 10 c30 -2 19 -18
-24 -35 -40 -16 -42 -16 -60 3 -18 19 -18 21 -1 30 9 6 28 9 42 7 14 -3 33 -5
43 -5z m-4015 -43 c-3 -14 -18 -28 -30 -28 -4 0 0 9 9 20 20 23 24 25 21 8z
m395 -3 c8 -18 -11 -31 -25 -17 -11 11 -3 32 12 32 4 0 10 -7 13 -15z m4778
-8 c-10 -9 -11 -8 -5 6 3 10 9 15 12 12 3 -3 0 -11 -7 -18z m-4718 -68 c7 -20
-10 -39 -34 -39 -14 0 -17 7 -14 33 2 17 4 38 4 45 1 16 35 -15 44 -39z m2862
41 c-3 -5 -10 -10 -16 -10 -5 0 -9 5 -9 10 0 6 7 10 16 10 8 0 12 -4 9 -10z
m401 -1 c3 -6 0 -17 -8 -25 -13 -13 -16 -13 -28 1 -12 14 -11 18 1 26 19 12
26 11 35 -2z m124 1 c0 -5 -5 -10 -11 -10 -5 0 -7 5 -4 10 3 6 8 10 11 10 2 0
4 -4 4 -10z m-3692 -82 c-3 -7 -12 -14 -21 -16 -12 -2 -15 1 -11 12 7 19 38
22 32 4z m3697 -2 c17 -12 18 -18 7 -40 -16 -35 -58 -36 -74 -1 -10 21 -8 28
8 40 24 18 35 18 59 1z m-4173 -34 c9 -9 8 -12 -4 -12 -8 0 -21 6 -27 14 -10
11 -9 14 4 12 8 -1 21 -8 27 -14z m3908 -12 c12 -8 10 -10 -8 -10 -16 0 -21
-4 -16 -12 5 -10 4 -10 -6 -1 -7 6 -9 16 -6 22 9 13 16 14 36 1z m-3869 -23
c-10 -9 -11 -8 -5 6 3 10 9 15 12 12 3 -3 0 -11 -7 -18z m917 14 c11 -7 11 -9
-1 -14 -16 -6 -27 0 -27 15 0 10 11 10 28 -1z m-948 -21 c-13 -24 -25 -27 -16
-4 5 14 4 15 -9 4 -8 -7 -15 -8 -15 -3 0 15 11 23 32 23 16 0 17 -3 8 -20z
m3460 -36 c0 -17 -36 -19 -46 -3 -8 14 14 29 33 22 7 -3 13 -11 13 -19z
m-3430 1 c0 -2 -6 -5 -13 -8 -8 -3 -14 1 -14 8 0 7 6 11 14 8 7 -3 13 -6 13
-8z m5698 -14 c7 -4 14 -15 15 -23 2 -8 13 -27 25 -43 13 -16 20 -35 18 -42
-3 -7 -1 -13 5 -13 6 0 7 -5 3 -12 -4 -7 -3 -8 4 -4 7 4 19 -9 31 -33 23 -43
14 -55 -31 -44 -36 10 -47 28 -52 83 0 8 -5 18 -11 22 -6 5 -5 8 3 8 9 0 10 5
3 19 -6 10 -8 21 -5 23 2 3 -2 11 -11 18 -18 15 -20 34 -2 25 6 -4 3 1 -7 9
-21 17 -11 22 12 7z m-5768 -12 c0 -3 -7 -14 -16 -25 -13 -16 -15 -16 -10 -1
4 12 0 17 -15 17 -11 0 -18 3 -16 8 6 8 57 10 57 1z m1148 -80 c51 -56 114
-84 167 -76 l36 6 -21 -29 c-46 -65 -72 -188 -51 -243 13 -35 -2 -43 -20 -11
-16 31 -92 87 -138 103 -42 14 -130 14 -168 1 -24 -9 -20 -3 23 37 28 27 64
71 80 98 25 43 29 60 29 123 0 54 3 69 10 56 6 -10 30 -39 53 -65z m-332 33
c-5 -9 -56 -5 -56 6 0 2 8 11 18 18 14 10 19 10 31 -1 7 -7 11 -17 7 -23z
m-779 13 c0 -8 -3 -13 -5 -10 -3 3 -14 -2 -24 -12 -15 -14 -18 -14 -18 -1 0 8
10 20 23 26 12 6 22 11 23 11 0 1 1 -6 1 -14z m315 -10 c0 -5 -5 -11 -10 -13
-5 -1 -9 4 -9 13 0 9 4 14 9 13 5 -2 10 -8 10 -13z m158 -5 l25 -19 -22 -22
c-19 -20 -26 -21 -48 -11 -27 13 -32 35 -12 57 16 19 27 18 57 -5z m-630 6 c0
-3 -4 -8 -10 -11 -5 -3 -10 -1 -10 4 0 6 5 11 10 11 6 0 10 -2 10 -4z m3909
-5 c12 -8 11 -12 -3 -27 -16 -15 -19 -15 -33 -1 -26 26 3 49 36 28z m-3862
-10 c8 7 13 8 13 1 0 -12 -29 -24 -41 -16 -7 4 -13 -19 -7 -28 1 -2 -4 -14
-11 -27 -7 -13 -9 -21 -3 -17 12 7 34 -18 24 -29 -4 -5 -1 -5 6 -1 10 6 10 11
1 22 -11 13 -9 13 15 3 l28 -13 -24 -9 c-39 -16 -50 -17 -44 -1 3 8 2 12 -4 9
-5 -3 -16 8 -25 26 -16 30 -16 32 11 60 18 19 31 26 38 19 6 -6 14 -6 23 1z
m733 -58 c-11 -17 -11 -17 -6 0 4 11 0 17 -12 17 -15 1 -15 3 3 16 18 13 20
13 23 0 2 -9 -2 -23 -8 -33z m-727 20 c-6 -16 -5 -17 13 -3 17 14 18 14 6 -2
-10 -13 -10 -17 0 -21 8 -3 8 -6 2 -6 -6 -1 -17 6 -24 14 -7 8 -17 15 -22 15
-6 0 -6 -6 1 -14 9 -10 8 -15 -2 -19 -18 -7 -15 32 4 44 22 14 29 11 22 -8z
m97 -24 c0 -5 -4 -9 -8 -9 -5 0 -9 7 -9 15 0 8 4 12 9 9 4 -3 8 -9 8 -15z
m3348 -41 c2 -13 -3 -30 -10 -35 -10 -9 -14 -3 -16 29 -2 29 1 39 10 36 7 -3
14 -16 16 -30z m-82 6 c-4 -9 -1 -24 6 -32 10 -12 10 -14 1 -8 -7 4 -18 16
-24 28 -8 15 -8 19 0 14 6 -4 11 -2 11 3 0 6 3 11 6 11 3 0 3 -7 0 -16z
m-3311 -3 c3 -5 1 -12 -5 -16 -5 -3 -10 1 -10 9 0 18 6 21 15 7z m711 -18 c13
-30 14 -67 4 -83 -16 -23 -40 15 -40 62 0 41 21 53 36 21z m-764 -45 c-7 -7
-12 -8 -12 -2 0 14 12 26 19 19 2 -3 -1 -11 -7 -17z m43 -8 c1 -16 -2 -30 -6
-30 -6 0 -6 45 0 58 4 8 6 -2 6 -28z m194 1 c12 -8 12 -12 -2 -26 -20 -19 -37
-12 -37 16 0 20 16 24 39 10z m-262 -39 c-2 -21 2 -26 16 -24 15 3 18 -2 14
-30 -4 -35 -20 -42 -25 -11 -2 10 -6 25 -9 33 -3 8 -7 20 -9 25 -1 6 -5 18 -9
28 -5 13 -3 16 8 11 10 -3 15 -16 14 -32z m6217 11 c3 -16 8 -54 11 -85 5 -56
4 -58 -18 -58 -36 0 -42 14 -39 94 3 66 6 76 22 76 12 0 20 -9 24 -27z m-6071
-23 c7 -25 -5 -25 -27 -1 -20 23 -13 49 9 31 7 -6 15 -20 18 -30z m3377 14 c0
-17 -9 -18 -30 -3 -12 9 -12 10 4 5 14 -5 17 -2 12 9 -3 9 -2 13 4 10 6 -3 10
-13 10 -21z m-3584 -21 c-7 -7 -26 7 -26 19 0 6 6 6 15 -2 9 -7 13 -15 11 -17z
m446 -20 c18 -16 25 -53 11 -53 -18 0 -66 48 -59 58 10 17 26 15 48 -5z m138
-13 c0 -12 -29 -40 -41 -40 -19 0 -22 33 -5 46 18 13 46 9 46 -6z m-623 -25
c0 -8 -4 -12 -9 -9 -5 3 -6 10 -3 15 9 13 12 11 12 -6z m311 -6 c-2 -6 -8 -10
-13 -10 -5 0 -11 4 -13 10 -2 6 4 11 13 11 9 0 15 -5 13 -11z m-298 -29 c0 -5
-4 -10 -10 -10 -5 0 -10 5 -10 10 0 6 5 10 10 10 6 0 10 -4 10 -10z m4360 -25
c11 -13 10 -14 -4 -9 -9 3 -16 10 -16 15 0 13 6 11 20 -6z m-4060 -34 c0 -5
-9 -19 -19 -32 -15 -18 -22 -21 -31 -13 -19 19 -2 54 26 54 13 0 24 -4 24 -9z
m3830 -20 c8 -16 7 -19 -8 -17 -9 2 -18 10 -20 19 -5 23 15 21 28 -2z m-3670
-25 c0 -11 -19 -15 -25 -6 -3 5 1 10 9 10 9 0 16 -2 16 -4z m-200 -80 c0 -3
-4 -8 -10 -11 -5 -3 -10 -1 -10 4 0 6 5 11 10 11 6 0 10 -2 10 -4z m250 -11
c0 -8 -7 -15 -15 -15 -16 0 -20 12 -8 23 11 12 23 8 23 -8z m170 -65 c0 -5 -4
-10 -10 -10 -5 0 -10 5 -10 10 0 6 5 10 10 10 6 0 10 -4 10 -10z m-1316 -29
c3 -5 -2 -15 -12 -22 -15 -12 -16 -12 -5 2 7 9 10 19 6 22 -3 4 -4 7 0 7 3 0
8 -4 11 -9z m965 -23 c-16 -30 -49 -42 -67 -24 -22 21 -3 41 42 42 30 0 34 -2
25 -18z m-963 -40 c-9 -5 -13 -14 -10 -20 4 -7 2 -8 -5 -4 -8 6 -9 12 -2 20 6
7 8 16 4 20 -4 4 1 4 11 0 16 -6 17 -8 2 -16z m1099 -8 c9 -15 -28 -75 -45
-75 -23 0 -23 29 0 58 23 29 35 33 45 17z m125 -65 c16 -10 12 -35 -6 -35 -8
0 -22 7 -31 15 -8 8 -19 13 -24 10 -5 -4 -9 1 -9 9 0 10 8 13 30 11 17 -2 35
-7 40 -10z m4276 -82 c1 -119 28 -189 100 -261 l54 -53 -43 6 c-99 15 -236
-32 -316 -108 -28 -27 -41 -35 -36 -22 4 11 14 40 22 65 26 83 -5 202 -68 254
-36 30 -37 39 -3 26 42 -17 122 -12 164 10 43 22 71 56 101 125 11 25 21 45
22 45 1 0 3 -39 3 -87z m-956 62 c6 -8 10 -20 7 -27 -4 -8 -6 -7 -6 4 -1 9 -9
22 -18 27 -10 6 -13 11 -7 11 6 0 17 -7 24 -15z m-107 -15 c-10 -11 -19 -20
-21 -20 -1 0 2 9 8 20 6 11 15 20 20 20 6 0 2 -9 -7 -20z m-2918 -25 c19 -15
19 -16 -3 -35 -12 -11 -19 -17 -17 -13 3 3 -7 14 -21 24 -25 16 -25 17 -8 28
24 13 25 13 49 -4z m-510 -36 c0 -15 -7 -25 -18 -27 -22 -4 -33 24 -17 43 18
21 35 13 35 -16z m3425 11 c6 -11 8 -20 6 -20 -3 0 -10 9 -16 20 -6 11 -8 20
-6 20 3 0 10 -9 16 -20z m-3100 -14 c0 -7 -6 -19 -14 -25 -18 -15 -30 11 -13
28 15 15 27 14 27 -3z m-43 -56 c10 -12 12 -12 13 -1 0 11 3 11 14 1 8 -6 12
-18 9 -27 -3 -8 -9 -10 -12 -5 -13 20 -52 34 -65 23 -20 -17 -43 13 -26 34 9
11 16 12 33 2 12 -7 27 -19 34 -27z m-343 -58 c-6 -9 -18 -18 -26 -20 -23 -4
-29 22 -11 48 14 20 17 21 32 6 12 -13 13 -20 5 -34z m-148 -43 c10 -17 -13
-36 -27 -22 -12 12 -4 33 11 33 5 0 12 -5 16 -11z m462 -49 c43 -27 49 -46 22
-75 -31 -33 -55 -37 -78 -11 -31 35 -34 44 -17 76 18 35 29 37 73 10z m226
-21 c-14 -15 -20 -16 -31 -7 -13 10 -12 14 2 24 9 7 23 10 31 7 13 -5 12 -8
-2 -24z m-114 -8 c0 -6 -4 -13 -10 -16 -5 -3 -10 1 -10 9 0 9 5 16 10 16 6 0
10 -4 10 -9z m-569 -98 c1 -5 2 -20 3 -34 2 -24 0 -26 -21 -16 -22 10 -30 36
-16 50 9 9 33 9 34 0z m5732 -72 c21 -8 28 -17 25 -34 -5 -36 -39 -32 -78 10
-19 20 -28 32 -19 25 13 -10 15 -9 14 6 0 9 -5 24 -10 32 -4 8 3 5 16 -7 13
-12 37 -26 52 -32z m-6106 -32 c-14 -46 -14 -55 -1 -81 28 -54 0 -62 -77 -22
l-51 25 -24 -22 c-23 -21 -26 -22 -41 -7 -8 9 -13 23 -10 31 9 23 200 146 211
136 6 -6 4 -28 -7 -60z m388 8 c1 -7 7 -11 14 -9 7 1 9 -2 6 -8 -5 -8 -13 -6
-26 6 -10 9 -16 21 -13 26 7 11 19 1 19 -15z m779 14 c3 -5 -1 -14 -9 -21 -13
-10 -15 -9 -15 9 0 21 14 28 24 12z m-857 -7 c-8 -8 -48 -13 -43 -6 2 4 14 8
26 9 12 1 20 0 17 -3z m173 -54 c0 -5 -2 -10 -4 -10 -3 0 -8 5 -11 10 -3 6 -1
10 4 10 6 0 11 -4 11 -10z m290 -20 c0 -5 -4 -10 -10 -10 -5 0 -10 5 -10 10 0
6 5 10 10 10 6 0 10 -4 10 -10z m-169 -33 c-13 -13 -26 -3 -16 12 3 6 11 8 17
5 6 -4 6 -10 -1 -17z m5632 -48 c31 -53 30 -79 -2 -79 -14 0 -27 16 -45 56
-32 69 -32 74 -3 74 16 0 29 -13 50 -51z m-5933 31 c0 -5 -5 -10 -11 -10 -5 0
-7 5 -4 10 3 6 8 10 11 10 2 0 4 -4 4 -10z m630 -103 c0 -5 -7 -15 -16 -24
-13 -13 -19 -14 -40 -3 -13 8 -24 19 -24 27 0 19 17 16 30 -4 10 -17 10 -16 9
2 -1 11 -1 23 0 28 1 9 41 -15 41 -26z m-549 -9 c9 -17 8 -18 -10 -9 -14 8
-22 8 -27 -1 -4 -7 -3 -8 4 -4 11 6 13 2 12 -20 -1 -3 9 -13 20 -22 l22 -17
-21 -19 c-19 -17 -19 -17 -14 5 5 17 3 20 -7 14 -9 -5 -11 -4 -6 3 4 7 3 19
-2 28 -6 11 -11 13 -16 5 -4 -6 -4 -11 1 -11 4 0 9 -15 9 -33 1 -17 5 -50 8
-73 6 -31 4 -44 -9 -54 -15 -12 -23 -7 -70 45 l-54 59 20 25 c11 14 38 45 60
68 42 44 61 47 80 11z m366 -3 c7 -21 2 -25 -42 -35 l-37 -8 28 29 c31 33 42
36 51 14z m83 -70 c0 -8 -4 -15 -10 -15 -5 0 -10 7 -10 15 0 8 5 15 10 15 6 0
10 -7 10 -15z m3621 -39 c-33 -54 -51 -125 -52 -205 0 -61 5 -83 25 -123 14
-28 23 -48 18 -46 -131 68 -266 83 -377 42 -14 -5 -9 4 16 32 57 61 73 100 73
174 0 41 -7 77 -17 97 -25 47 -22 48 28 7 78 -63 161 -58 252 16 26 22 49 39
51 40 2 0 -6 -15 -17 -34z m-4011 -41 c7 -8 9 -15 4 -15 -5 0 -2 -5 6 -10 13
-8 12 -10 -4 -10 -12 0 -16 5 -12 15 3 8 -2 19 -12 24 -9 6 -12 11 -6 11 6 0
17 -7 24 -15z m95 5 c3 -5 1 -10 -4 -10 -6 0 -11 5 -11 10 0 6 2 10 4 10 3 0
8 -4 11 -10z m55 -79 c0 -10 -7 -24 -15 -31 -17 -14 -45 -7 -44 12 0 10 2 10
6 1 2 -7 12 -13 20 -13 12 0 13 3 3 15 -14 16 -6 35 16 35 8 0 14 -8 14 -19z
m-674 -2 c8 -13 -36 -50 -49 -42 -18 11 12 -33 42 -61 61 -58 34 -80 -65 -54
-42 12 -45 15 -39 38 4 14 8 38 9 54 2 16 10 34 19 41 10 7 17 17 17 24 0 14
57 14 66 0z m1044 -4 c15 -18 6 -45 -14 -45 -22 0 -36 30 -22 46 15 17 21 17
36 -1z m-479 -12 c13 -16 12 -17 -3 -4 -10 7 -18 15 -18 17 0 8 8 3 21 -13z
m31 -78 c-8 -16 -9 -16 -15 -1 -4 10 -3 15 3 11 6 -3 10 -1 10 6 0 7 3 10 6 6
3 -3 2 -13 -4 -22z m513 -25 c3 -5 1 -10 -4 -10 -6 0 -11 5 -11 10 0 6 2 10 4
10 3 0 8 -4 11 -10z m-455 -55 c-5 -7 -9 -14 -7 -16 1 -2 0 -3 -2 -1 -11 7 -7
29 5 29 9 0 11 -4 4 -12z m-180 1 c0 -2 -8 -10 -17 -17 -16 -13 -17 -12 -4 4
13 16 21 21 21 13z m254 -32 c3 -8 2 -12 -4 -9 -6 3 -10 10 -10 16 0 14 7 11
14 -7z m-34 -9 c0 -2 -9 -3 -19 -2 -11 0 -18 5 -15 9 4 6 34 0 34 -7z m-200 1
c0 -2 -8 -10 -17 -17 -16 -13 -17 -12 -4 4 13 16 21 21 21 13z m570 -36 c21
-20 26 -30 15 -30 -8 0 -15 5 -15 11 0 6 -7 8 -16 5 -24 -9 -47 13 -33 30 15
18 14 19 49 -16z m455 19 c11 -17 -1 -21 -15 -4 -8 9 -8 15 -2 15 6 0 14 -5
17 -11z m-1010 -28 c-3 -2 3 -10 13 -18 16 -13 15 -13 -3 -4 -43 22 -51 30
-28 28 12 0 20 -3 18 -6z m55 -25 c0 -3 -4 -8 -10 -11 -5 -3 -10 -1 -10 4 0 6
5 11 10 11 6 0 10 -2 10 -4z m5094 -118 c-12 -15 -13 -18 -3 -10 9 7 23 10 30
7 11 -4 54 -60 67 -86 3 -7 -44 -29 -64 -29 -13 0 -31 32 -39 70 -2 8 -4 20
-6 25 -4 15 12 45 24 45 5 0 2 -10 -9 -22z m-53 -245 c0 -5 2 -15 4 -23 1 -8
5 -32 9 -52 3 -21 7 -43 8 -50 2 -8 -9 -14 -24 -16 -18 -2 -28 1 -29 10 0 7
-2 41 -6 76 -5 58 -4 62 16 62 12 0 21 -3 22 -7z m-391 -175 c22 -30 22 -32 5
-45 -30 -21 -52 -15 -65 18 -10 24 -10 32 0 42 10 9 11 9 6 -3 -4 -8 -1 -7 6
3 17 23 21 22 48 -15z m-3701 8 c9 -11 8 -15 -5 -20 -21 -8 -34 1 -27 19 7 19
17 19 32 1z m-59 -11 c0 -8 -7 -15 -15 -15 -8 0 -15 7 -15 15 0 8 7 15 15 15
8 0 15 -7 15 -15z m310 -67 c0 -5 4 -7 9 -3 5 3 12 1 16 -5 11 -17 -23 -23
-40 -7 -19 19 -19 24 0 24 8 0 15 -4 15 -9z m4124 -37 c4 -5 -3 -7 -14 -4 -12
3 -20 0 -20 -8 0 -7 -3 -10 -6 -6 -9 9 5 27 21 27 8 0 16 -4 19 -9z m-216
-105 l3 -89 -51 5 c-28 3 -53 8 -56 11 -3 3 4 36 16 74 12 37 23 74 26 81 2 8
15 12 31 10 28 -3 28 -3 31 -92z m-361 32 c33 -38 65 -98 60 -112 -6 -16 -52
-10 -65 8 -5 6 -14 30 -20 52 -22 75 -13 93 25 52z m-3967 -27 c0 -5 11 -23
25 -39 23 -28 24 -31 7 -43 -15 -12 -16 -12 -5 2 10 12 9 18 -5 30 -19 16 -43
19 -39 4 1 -5 6 -9 10 -7 5 1 6 -2 2 -7 -9 -15 -31 -3 -43 24 -9 20 -8 26 6
34 22 13 42 14 42 2z m3510 -33 c0 -5 7 -8 17 -6 12 2 17 -6 19 -30 4 -55 52
-122 158 -224 75 -71 98 -99 90 -108 -34 -35 -397 232 -377 278 5 9 8 28 8 42
-1 18 8 30 28 41 32 17 57 20 57 7z m-3490 -32 c0 -2 -8 -10 -17 -17 -16 -13
-17 -12 -4 4 13 16 21 21 21 13z m11 -53 c13 -16 12 -17 -3 -4 -10 7 -18 15
-18 17 0 8 8 3 21 -13z m3007 -83 c9 -24 8 -33 -5 -46 -13 -12 -17 -13 -24 -2
-5 8 -3 15 4 18 17 7 19 27 6 52 -6 12 -7 18 -1 14 6 -3 15 -19 20 -36z m56
-72 c-5 -8 -2 -9 9 -5 11 4 21 -1 28 -15 7 -12 7 -18 1 -14 -6 3 -13 0 -16 -6
-3 -7 -4 -2 -1 12 3 14 2 19 -1 12 -5 -10 -9 -10 -22 0 -10 8 -7 0 6 -19 12
-17 22 -35 22 -39 0 -18 67 -104 93 -119 23 -14 26 -19 15 -32 -14 -17 -58
-13 -110 11 -18 8 -50 22 -71 30 -41 17 -41 12 -14 96 11 34 53 100 63 100 3
0 2 -5 -2 -12z m96 8 c0 -2 -8 -10 -17 -17 -16 -13 -17 -12 -4 4 13 16 21 21
21 13z m-1685 -35 c3 -5 1 -12 -5 -16 -5 -3 -10 1 -10 9 0 18 6 21 15 7z
m1041 -4 c15 6 36 -36 26 -52 -4 -5 -7 -19 -8 -30 -3 -54 -18 -105 -39 -131
l-22 -28 -14 25 c-24 43 -62 217 -40 180 6 -9 10 -6 14 9 3 12 11 20 19 19 27
-3 39 1 32 14 -5 9 -4 9 6 0 7 -6 19 -9 26 -6z m63 -13 c-14 -13 -16 -13 -16
0 0 8 4 13 9 10 4 -3 8 0 8 7 0 7 3 9 7 5 4 -3 0 -13 -8 -22z m-1975 1 c3 -8
1 -15 -4 -15 -6 0 -10 5 -10 10 0 6 -5 10 -11 10 -5 0 -7 -5 -3 -12 4 -7 3 -8
-4 -4 -18 11 -14 26 7 26 10 0 21 -7 25 -15z m132 3 c5 -7 2 -9 -8 -6 -19 8
-45 -7 -29 -16 6 -4 11 -2 11 5 0 9 3 9 14 0 8 -7 13 -20 11 -29 -1 -9 1 -22
6 -28 5 -7 3 -11 -6 -11 -8 0 -12 4 -9 8 2 4 0 11 -6 14 -8 5 -7 11 1 21 14
17 -2 19 -19 2 -9 -9 -9 -15 1 -27 10 -14 10 -14 -4 -4 -9 7 -18 10 -21 7 -3
-3 -9 0 -14 7 -4 7 -3 10 3 6 6 -4 17 1 24 10 12 15 12 16 -4 10 -13 -5 -16
-3 -11 6 22 38 46 48 60 25z m608 -20 c1 -7 5 -19 9 -25 5 -8 3 -13 -6 -13
-16 0 -26 27 -19 48 5 15 13 10 16 -10z m1561 12 c-3 -5 -12 -10 -18 -10 -7 0
-6 4 3 10 19 12 23 12 15 0z m-2308 -37 c0 -9 -4 -10 -14 -2 -7 6 -13 12 -13
14 0 1 6 2 13 2 8 0 14 -6 14 -14z m27 1 c3 -8 2 -12 -4 -9 -6 3 -10 10 -10
16 0 14 7 11 14 -7z m856 -3 c-15 -28 -30 -35 -43 -21 -9 10 -9 11 0 6 7 -4
18 2 25 14 16 26 32 26 18 1z m525 0 c-4 5 -2 9 4 9 6 0 15 -9 21 -20 6 -11
14 -19 18 -19 16 3 23 -2 17 -11 -5 -8 -11 -7 -21 1 -17 14 -21 11 -26 -16 -1
-11 -7 -24 -11 -30 -4 -5 -14 -19 -22 -30 -20 -29 -38 -7 -37 47 2 76 2 77 34
67 17 -5 26 -4 23 2z m335 -19 c0 -8 -1 -13 -3 -11 -1 2 -9 12 -16 22 -12 15
-12 17 3 11 9 -3 16 -13 16 -22z m-144 6 c4 -7 3 -10 -1 -5 -5 4 -17 0 -27 -9
-15 -14 -16 -20 -5 -33 11 -14 10 -14 -6 -2 -12 9 -14 17 -7 26 5 6 6 16 2 20
-4 5 -2 5 5 1 6 -3 14 -2 18 4 8 13 12 13 21 -2z m-65 -11 c-6 -8 -8 -17 -4
-21 4 -4 -1 -4 -12 0 -17 7 -18 6 -7 -8 11 -13 11 -18 0 -24 -7 -4 -10 -3 -5
1 4 5 -1 18 -10 29 -10 12 -14 18 -9 14 5 -4 18 -1 30 7 26 19 32 19 17 2z
m-208 -14 c-14 -5 -18 -25 -5 -20 9 3 15 -12 6 -15 -4 -2 -13 6 -20 17 -12 19
-11 21 9 22 12 0 16 -1 10 -4z m122 -22 c3 -5 2 -12 -3 -15 -5 -3 -9 1 -9 9 0
17 3 19 12 6z m39 -12 c-3 -5 -10 -7 -15 -3 -5 3 -7 10 -3 15 3 5 10 7 15 3 5
-3 7 -10 3 -15z m-1770 -16 c17 -89 18 -103 5 -103 -8 0 -24 -3 -36 -6 -21 -6
-23 -3 -23 27 0 68 12 109 31 109 11 0 19 -10 23 -27z m714 -50 c2 -58 0 -73
-11 -73 -16 0 -23 21 -33 99 -6 51 -6 53 17 49 22 -3 24 -8 27 -75z m658 -151
c6 -4 14 -16 18 -26 7 -19 6 -19 -13 -2 -20 18 -20 18 -11 -15 11 -36 0 -29
-17 13 -15 33 -3 48 23 30z m512 -146 c2 -48 9 -87 17 -99 18 -25 4 -47 -30
-47 -29 0 -35 22 -35 122 0 88 6 110 29 106 13 -3 17 -19 19 -82z m-471 29
c-4 -8 -12 -15 -19 -14 -10 0 -10 2 0 6 6 2 12 12 12 21 0 8 3 13 6 9 4 -3 4
-13 1 -22z"/>
<path d="M6483 9295 c0 -8 4 -12 9 -9 5 3 6 10 3 15 -9 13 -12 11 -12 -6z"/>
<path d="M6595 9201 c-3 -5 -2 -12 3 -15 5 -3 9 1 9 9 0 17 -3 19 -12 6z"/>
<path d="M6663 9135 c0 -8 4 -12 9 -9 5 3 6 10 3 15 -9 13 -12 11 -12 -6z"/>
<path d="M6522 8990 c0 -14 2 -19 5 -12 2 6 2 18 0 25 -3 6 -5 1 -5 -13z"/>
<path d="M6694 8936 c3 -25 12 -28 27 -9 7 10 9 15 5 11 -5 -4 -15 -3 -22 3
-9 7 -12 6 -10 -5z"/>
<path d="M6561 8894 c0 -11 3 -14 6 -6 3 7 2 16 -1 19 -3 4 -6 -2 -5 -13z"/>
<path d="M4356 7748 c3 -5 10 -6 15 -3 13 9 11 12 -6 12 -8 0 -12 -4 -9 -9z"/>
<path d="M4896 6771 c-7 -11 18 -33 27 -24 4 3 7 12 7 20 0 15 -26 18 -34 4z"/>
<path d="M5770 6080 c0 -5 5 -10 10 -10 6 0 10 5 10 10 0 6 -4 10 -10 10 -5 0
-10 -4 -10 -10z"/>
<path d="M5963 5980 c-29 -12 -30 -30 -2 -37 16 -4 17 -8 7 -14 -9 -6 -9 -9
-1 -9 14 0 33 31 33 54 0 18 -5 19 -37 6z"/>
<path d="M4405 5400 c-3 -5 -1 -10 4 -10 6 0 11 5 11 10 0 6 -2 10 -4 10 -3 0
-8 -4 -11 -10z"/>
<path d="M3360 4946 c0 -9 5 -16 10 -16 6 0 10 4 10 9 0 6 -4 13 -10 16 -5 3
-10 -1 -10 -9z"/>
<path d="M2985 4780 c-3 -5 -1 -10 6 -10 6 0 9 -8 6 -20 -3 -11 -1 -20 3 -20
15 0 22 19 15 40 -7 22 -20 26 -30 10z"/>
<path d="M3030 4211 c0 -6 5 -13 10 -16 6 -3 10 1 10 9 0 9 -4 16 -10 16 -5 0
-10 -4 -10 -9z"/>
<path d="M6633 4028 c-7 -8 -8 -19 -3 -28 8 -12 10 -12 15 2 10 26 2 43 -12
26z"/>
<path d="M2925 3839 c-4 -6 -3 -15 3 -21 6 -6 11 -4 15 6 7 18 -9 31 -18 15z"/>
<path d="M2550 3201 c0 -6 5 -13 10 -16 6 -3 10 1 10 9 0 9 -4 16 -10 16 -5 0
-10 -4 -10 -9z"/>
<path d="M2715 3140 c4 -6 11 -8 16 -5 14 9 11 15 -7 15 -8 0 -12 -5 -9 -10z"/>
<path d="M3145 3020 c3 -5 8 -10 11 -10 2 0 4 5 4 10 0 6 -5 10 -11 10 -5 0
-7 -4 -4 -10z"/>
<path d="M2626 3005 c-3 -9 0 -15 9 -15 16 0 20 16 6 24 -5 3 -11 -1 -15 -9z"/>
<path d="M2867 2764 c-4 -4 -7 -21 -7 -38 1 -26 2 -29 13 -15 7 8 20 18 30 22
10 4 17 13 15 20 -5 14 -40 21 -51 11z"/>
<path d="M2645 2111 c-3 -5 -1 -12 5 -16 5 -3 10 1 10 9 0 18 -6 21 -15 7z"/>
<path d="M3303 1072 c-7 -4 -9 -13 -4 -21 6 -9 11 -10 15 -2 4 6 12 9 17 6 5
-3 6 1 3 9 -7 18 -13 19 -31 8z"/>
<path d="M3843 9255 c0 -8 4 -12 9 -9 5 3 6 10 3 15 -9 13 -12 11 -12 -6z"/>
<path d="M3433 9063 c4 -3 1 -13 -6 -22 -11 -14 -10 -14 5 -2 16 12 16 31 1
31 -4 0 -3 -3 0 -7z"/>
<path d="M3503 8895 c0 -8 4 -12 9 -9 5 3 6 10 3 15 -9 13 -12 11 -12 -6z"/>
<path d="M6809 8763 c-12 -16 -12 -17 1 -6 8 6 26 13 40 16 l25 4 -26 2 c-15
0 -33 -7 -40 -16z"/>
<path d="M4165 8530 c-4 -12 -5 -24 -2 -27 3 -2 8 5 12 17 4 12 5 24 2 27 -3
2 -8 -5 -12 -17z"/>
<path d="M3569 8387 c6 -8 7 -18 3 -22 -4 -5 -1 -5 6 -1 10 6 10 11 1 22 -6 8
-14 14 -16 14 -3 0 0 -6 6 -13z"/>
<path d="M3595 8361 c-3 -5 -1 -12 5 -16 6 -4 7 -11 4 -17 -4 -7 -2 -8 5 -4 8
6 9 12 2 20 -6 7 -8 16 -4 19 3 4 4 7 0 7 -3 0 -8 -4 -12 -9z"/>
<path d="M3625 8321 c-3 -5 -1 -12 5 -16 6 -4 8 -10 5 -15 -3 -5 -1 -11 4 -14
8 -5 8 15 1 34 -1 3 -2 8 -1 13 1 10 -7 9 -14 -2z"/>
<path d="M3825 8161 c-3 -5 -2 -12 3 -15 5 -3 9 1 9 9 0 17 -3 19 -12 6z"/>
<path d="M4203 8055 c0 -8 4 -12 9 -9 5 3 6 10 3 15 -9 13 -12 11 -12 -6z"/>
<path d="M6777 8042 c-12 -21 -14 -33 -6 -37 17 -11 31 10 27 40 l-3 27 -18
-30z m13 -22 c0 -5 -5 -10 -11 -10 -5 0 -7 5 -4 10 3 6 8 10 11 10 2 0 4 -4 4
-10z"/>
<path d="M4175 8041 c-3 -5 -2 -12 3 -15 5 -3 9 1 9 9 0 17 -3 19 -12 6z"/>
<path d="M4285 8001 c-3 -5 -2 -12 3 -15 5 -3 9 1 9 9 0 17 -3 19 -12 6z"/>
<path d="M4335 7931 c-3 -6 -15 -8 -27 -6 -11 3 -18 1 -14 -2 13 -13 53 -10
53 4 0 15 -4 17 -12 4z"/>
<path d="M4404 7816 c1 -8 5 -18 8 -22 4 -3 5 1 4 10 -1 8 -5 18 -8 22 -4 3
-5 -1 -4 -10z"/>
<path d="M4451 7766 c-9 -11 -9 -16 1 -22 7 -4 10 -4 6 1 -4 4 -3 14 3 22 6 7
9 13 6 13 -2 0 -10 -6 -16 -14z"/>
<path d="M4720 7766 c0 -8 5 -18 10 -21 6 -3 11 -23 11 -43 1 -26 3 -30 6 -13
6 31 -5 91 -17 91 -6 0 -10 -6 -10 -14z"/>
<path d="M4010 7730 c0 -5 5 -10 11 -10 6 0 9 -7 5 -15 -3 -8 -1 -15 5 -15 6
0 8 -9 4 -20 -4 -12 -2 -20 5 -20 8 0 9 -10 5 -31 -5 -24 -4 -30 5 -24 10 6
11 -3 6 -41 -5 -37 -4 -45 4 -34 8 11 9 -14 5 -95 -5 -84 -4 -106 5 -95 9 12
10 9 5 -13 -3 -17 -1 -35 6 -43 6 -8 7 -14 2 -14 -5 0 -9 -17 -8 -38 0 -22 5
-39 12 -39 6 0 9 7 6 14 -3 8 0 13 8 11 9 -2 13 4 11 16 -2 11 1 15 8 11 6 -4
9 -1 8 7 -2 7 2 12 9 11 8 -2 10 4 6 14 -4 11 -3 14 6 9 6 -4 10 -4 9 1 -4 16
13 51 27 57 8 3 12 12 9 21 -4 10 0 15 11 15 10 0 13 -5 9 -12 -4 -7 -3 -8 5
-4 6 4 9 12 6 17 -6 9 9 14 30 9 6 -1 7 2 3 5 -4 4 3 16 15 26 14 12 5 10 -26
-7 -26 -14 -55 -23 -64 -20 -9 4 -25 -1 -37 -11 -15 -13 -17 -14 -8 -2 6 9 8
19 4 23 -4 4 -1 6 7 4 26 -6 33 77 15 170 -18 89 -16 86 -111 146 -24 14 -43
22 -43 16z m67 -372 c-3 -8 -6 -5 -6 6 -1 11 2 17 5 13 3 -3 4 -12 1 -19z m95
5 c-6 -2 -10 -9 -7 -14 8 -11 -23 -69 -36 -69 -6 0 -8 -4 -5 -9 3 -5 -1 -12
-10 -15 -10 -4 -14 -14 -12 -24 3 -11 0 -19 -7 -19 -13 0 -10 22 6 43 5 6 6
13 3 17 -3 3 4 8 17 12 16 6 18 9 8 16 -8 5 -21 2 -34 -9 -20 -17 -20 -17 -2
4 9 11 14 24 10 29 -5 4 2 2 14 -6 25 -15 35 -9 39 24 3 29 2 27 17 26 9 0 9
-2 -1 -6z m-35 -28 c0 -8 -4 -12 -9 -9 -5 3 -6 10 -3 15 9 13 12 11 12 -6z"/>
<path d="M4445 7721 c-3 -5 -2 -12 3 -15 5 -3 9 1 9 9 0 17 -3 19 -12 6z"/>
<path d="M4335 7544 c-13 -29 -14 -38 -4 -48 9 -8 10 -8 5 1 -4 7 0 26 9 44 9
17 14 33 12 35 -2 3 -12 -12 -22 -32z"/>
<path d="M4305 7479 c-4 -6 -5 -12 -2 -15 2 -3 7 2 10 11 7 17 1 20 -8 4z"/>
<path d="M4245 7361 c-3 -5 -2 -12 3 -15 5 -3 9 1 9 9 0 17 -3 19 -12 6z"/>
<path d="M4205 7329 c-11 -16 -1 -19 13 -3 7 8 8 14 3 14 -5 0 -13 -5 -16 -11z"/>
<path d="M4870 7300 c-8 -5 -10 -10 -5 -10 6 0 -1 -10 -15 -23 -14 -12 -21
-19 -16 -14 14 10 28 9 22 -2 -9 -13 22 -7 36 7 9 9 9 12 1 12 -7 0 -10 9 -8
20 4 23 5 23 -15 10z"/>
<path d="M4052 7185 c0 -16 2 -22 5 -12 2 9 2 23 0 30 -3 6 -5 -1 -5 -18z"/>
<path d="M4071 7117 c-8 -10 -7 -14 2 -14 8 0 14 6 14 14 0 7 -1 13 -2 13 -2
0 -8 -6 -14 -13z"/>
<path d="M3795 6679 c-3 -4 2 -6 10 -5 21 3 28 13 10 13 -9 0 -18 -4 -20 -8z"/>
<path d="M3782 6635 c-16 -13 -31 -22 -34 -20 -3 3 -12 -3 -20 -12 -14 -16
-13 -23 9 -68 21 -43 26 -30 7 19 -6 15 12 22 41 16 5 -1 1 7 -8 18 -17 19
-17 21 15 46 18 14 30 26 26 26 -3 0 -20 -11 -36 -25z m-17 -54 c-3 -3 -10 1
-15 9 -7 10 -10 11 -10 3 0 -7 -5 -13 -11 -13 -8 0 -8 5 1 15 10 12 16 13 27
4 7 -7 11 -14 8 -18z"/>
<path d="M3618 6445 c-3 -14 -1 -25 3 -25 5 0 9 11 9 25 0 14 -2 25 -4 25 -2
0 -6 -11 -8 -25z"/>
<path d="M3335 6220 c-3 -5 -3 -10 1 -10 5 0 -12 -20 -36 -45 -41 -42 -70 -60
-54 -33 4 7 3 8 -5 4 -6 -4 -9 -11 -6 -16 3 -5 1 -11 -5 -15 -15 -10 -12 -19
13 -34 20 -13 21 -13 8 2 -12 15 -9 21 11 18 4 0 4 7 1 17 -3 9 -3 14 2 10 4
-4 32 11 61 34 52 39 54 42 38 59 -20 22 -21 22 -29 9z m28 -30 c-4 -3 -28
-21 -53 -40 l-45 -33 43 42 c26 25 40 46 35 54 -4 7 0 6 11 -2 9 -8 13 -17 9
-21z"/>
<path d="M3299 6113 c-13 -16 -12 -17 4 -4 9 7 17 15 17 17 0 8 -8 3 -21 -13z"/>
<path d="M3156 6061 c-6 -9 7 -22 34 -35 8 -4 6 0 -5 9 -11 9 -19 21 -17 26 3
12 -5 12 -12 0z"/>
<path d="M3133 6029 c1 -5 -23 -33 -54 -62 -30 -28 -48 -46 -39 -39 9 6 20 9
24 5 4 -5 6 -3 4 3 -1 6 18 29 44 51 34 30 43 43 33 47 -8 3 -14 1 -12 -5z"/>
<path d="M2979 5903 c-13 -16 -12 -17 4 -4 9 7 17 15 17 17 0 8 -8 3 -21 -13z"/>
<path d="M2775 5700 c-32 -27 -61 -47 -65 -45 -4 3 -14 -3 -21 -13 -13 -16
-13 -16 6 -2 19 14 19 14 6 -2 -7 -10 -17 -18 -22 -18 -4 0 -45 -37 -90 -82
-45 -46 -76 -74 -68 -63 13 20 13 20 -8 1 -13 -10 -20 -22 -18 -26 3 -4 -3
-14 -12 -21 -14 -12 -16 -12 -8 0 5 10 4 12 -4 7 -6 -4 -9 -11 -7 -15 6 -9
-48 -64 -55 -56 -3 2 -22 -12 -42 -33 l-36 -37 20 -44 c15 -33 17 -47 8 -57
-13 -16 -14 -15 24 -18 15 -2 30 2 34 7 3 6 1 7 -5 3 -7 -4 -12 -3 -12 2 0 5
12 14 26 20 14 7 22 17 19 22 -3 6 -1 10 4 10 6 0 11 5 11 10 0 7 -7 7 -21 -1
-17 -9 -19 -13 -8 -20 23 -14 0 -10 -30 5 -15 8 -34 23 -42 33 -10 12 -5 11
15 -5 38 -29 46 -28 47 11 1 23 3 26 6 10 2 -13 9 -23 14 -23 6 0 7 5 3 11 -4
8 0 7 15 -1 12 -6 18 -16 15 -22 -4 -7 -2 -8 5 -4 9 6 9 11 -1 23 -15 18 -20
45 -7 37 5 -3 7 -10 4 -15 -4 -5 -2 -9 4 -9 5 0 13 5 16 10 4 6 11 7 17 4 7
-4 8 -2 4 5 -4 6 -11 9 -16 6 -5 -3 -11 -1 -15 4 -6 11 27 7 48 -5 7 -5 6 0
-3 11 -14 17 -13 18 4 12 13 -5 17 -3 13 7 -8 21 3 27 26 15 13 -7 17 -8 13
-1 -4 6 2 15 11 21 10 6 13 11 8 11 -6 0 -16 -5 -21 -10 -7 -7 -11 -6 -11 4 0
8 4 13 9 10 4 -3 8 0 8 6 0 7 7 7 23 -1 20 -11 21 -11 8 5 -8 9 -10 16 -5 15
20 -3 35 1 30 10 -3 5 1 12 10 15 9 3 14 13 11 21 -4 9 -1 12 9 8 11 -4 14 1
10 21 -3 15 -1 24 5 21 5 -4 7 -11 4 -16 -4 -5 -1 -9 4 -9 15 0 14 23 -1 39
-11 11 -9 11 11 1 23 -12 24 -12 17 25 -6 30 -4 41 14 57 11 10 18 23 15 29
-4 5 -2 9 3 9 6 0 15 14 21 30 5 17 13 30 16 30 3 0 4 -4 1 -8 -2 -4 4 -8 14
-8 13 0 16 4 10 11 -6 7 -4 19 6 33 8 12 14 22 12 22 -2 0 -30 -22 -63 -50z"/>
<path d="M2265 5202 c-11 -15 -19 -30 -18 -34 2 -4 -6 -5 -17 -3 -10 2 -25 -4
-32 -13 -10 -12 -10 -14 0 -8 6 4 12 3 12 -2 0 -11 -56 -64 -67 -62 -4 1 -13
-11 -19 -27 -14 -34 0 -93 21 -93 12 0 15 14 15 62 0 56 1 61 16 47 8 -9 16
-27 18 -42 1 -14 8 -32 14 -40 7 -8 8 -18 4 -22 -4 -5 -1 -5 6 -1 11 7 10 11
-2 25 -10 11 -12 21 -6 31 9 14 15 6 10 -15 -1 -5 2 -6 6 -2 12 12 14 38 2 31
-6 -4 -8 -1 -6 7 3 8 11 13 17 12 16 -4 14 2 -6 18 -9 8 -14 9 -11 4 4 -6 -3
-11 -15 -12 -12 0 -16 1 -9 4 6 3 10 9 6 14 -3 5 0 8 8 7 7 -2 12 3 10 10 -2
9 2 11 10 6 7 -5 21 -10 32 -11 15 -3 16 -1 7 11 -9 10 -9 16 -1 21 8 5 7 12
-2 23 -12 15 -11 16 5 3 12 -10 14 -17 7 -26 -8 -9 -6 -14 5 -19 10 -3 13 -11
9 -18 -5 -9 -3 -9 9 1 18 14 22 23 10 19 -5 -2 -8 2 -8 7 0 6 3 9 8 8 4 -2 7
1 7 5 0 4 9 8 20 9 13 1 18 -2 14 -9 -4 -7 -2 -8 4 -4 19 11 -3 51 -30 54 -15
2 -28 12 -34 27 l-9 24 -20 -27z m42 -47 c0 -8 -4 -12 -9 -9 -5 3 -6 10 -3 15
9 13 12 11 12 -6z"/>
<path d="M2376 5148 c3 -5 10 -6 15 -3 13 9 11 12 -6 12 -8 0 -12 -4 -9 -9z"/>
<path d="M3009 5100 c-22 -22 -39 -43 -39 -47 0 -4 5 -2 11 4 7 7 21 8 40 3
33 -10 47 6 47 53 -1 37 -13 34 -59 -13z"/>
<path d="M3106 5117 c3 -10 9 -15 12 -12 3 3 0 11 -7 18 -10 9 -11 8 -5 -6z"/>
<path d="M2089 5030 c0 -3 -2 -14 -4 -25 -2 -11 3 -27 12 -37 22 -25 7 -39
-40 -36 -28 2 -42 -1 -43 -9 -1 -7 -2 -18 -3 -24 0 -5 -6 -7 -13 -3 -6 4 -8 3
-4 -4 3 -6 -4 -18 -16 -26 -12 -9 -18 -16 -13 -16 6 0 3 -6 -5 -13 -8 -7 -16
-18 -17 -25 -2 -6 -4 -17 -5 -23 -2 -6 -16 -25 -31 -41 -15 -17 -26 -37 -23
-45 3 -8 2 -11 -4 -8 -5 3 -18 -4 -29 -16 -22 -24 -169 -305 -154 -296 5 3 15
2 22 -2 21 -13 -5 -54 -30 -48 -16 4 -19 2 -13 -15 4 -13 2 -18 -4 -14 -6 4
-8 -2 -4 -16 3 -13 1 -19 -5 -15 -7 5 -9 -1 -5 -15 3 -13 1 -19 -5 -15 -7 5
-9 -1 -5 -15 3 -13 1 -19 -5 -15 -6 4 -8 -4 -6 -21 4 -22 2 -24 -7 -12 -8 12
-9 9 -4 -14 4 -18 3 -27 -3 -23 -6 4 -8 -4 -5 -20 3 -15 1 -24 -5 -20 -5 4 -8
-7 -5 -26 3 -26 1 -29 -8 -17 -9 12 -10 7 -4 -20 8 -41 22 -53 91 -76 31 -11
49 -22 46 -28 -4 -6 1 -5 10 3 9 7 17 9 17 3 0 -5 11 -12 25 -14 22 -5 23 -3
10 14 -11 17 -11 25 1 53 7 18 10 36 6 40 -4 5 -2 5 5 1 9 -5 9 -14 3 -32 -13
-32 -13 -31 4 -37 11 -4 13 1 10 19 -6 35 4 48 24 32 15 -12 16 -11 3 4 -7 10
-17 15 -22 13 -4 -3 -7 7 -5 22 1 16 8 27 14 26 14 -3 16 13 3 21 -5 3 -8 17
-8 32 0 18 2 22 8 13 7 -11 9 -9 10 6 1 11 2 29 3 40 0 11 8 20 16 20 8 0 13
-7 11 -15 -2 -8 -4 -26 -3 -40 1 -23 0 -23 -9 -5 -9 19 -9 18 -5 -3 2 -12 1
-20 -4 -17 -4 2 -6 -7 -4 -21 4 -37 -6 -60 -18 -42 -8 11 -9 10 -6 -1 2 -8 11
-15 20 -17 11 -1 15 3 11 14 -4 9 -2 13 4 9 7 -4 9 5 7 24 -3 26 -2 29 10 20
12 -10 14 -7 10 18 -3 19 -1 31 6 31 6 0 9 -4 5 -9 -3 -5 0 -13 7 -17 7 -4 10
-4 6 1 -4 4 -3 14 3 22 6 7 8 13 4 13 -4 0 -1 8 6 18 12 15 12 16 -2 5 -9 -7
-19 -10 -22 -6 -10 10 14 34 27 26 7 -4 7 -1 -1 8 -10 12 -10 18 0 29 9 10 9
11 0 6 -12 -7 -19 14 -13 39 1 6 3 15 4 20 5 28 26 48 52 50 16 2 31 4 34 5 3
1 9 2 13 1 5 -1 6 3 2 9 -3 6 -10 8 -15 5 -4 -3 -10 2 -13 10 -4 8 -1 12 6 10
17 -6 33 6 41 31 5 15 -7 38 -44 87 -27 36 -50 69 -50 73 0 4 -7 12 -16 18 -8
6 -17 20 -18 31 -2 11 -9 19 -16 17 -6 -1 -9 2 -5 8 3 6 10 8 15 5 4 -3 10 2
14 10 3 8 1 17 -4 20 -6 4 -10 1 -10 -6 0 -7 -2 -10 -5 -7 -3 3 -2 13 1 22 5
14 9 15 16 4 7 -9 8 -7 5 10 -3 12 -1 20 3 17 5 -3 11 1 14 7 3 7 3 3 0 -9 -2
-12 -7 -31 -9 -42 -3 -12 -7 -30 -9 -41 -3 -13 -1 -18 6 -14 6 4 8 3 4 -4 -3
-6 -2 -13 3 -16 5 -3 7 10 5 29 -1 19 1 37 6 40 4 3 6 15 2 27 -4 15 -2 19 7
13 10 -6 11 -3 2 13 -7 14 -8 23 -1 27 6 4 8 11 5 16 -8 13 94 119 114 119 28
0 40 20 34 59 -5 30 -21 66 -24 51z m-61 -590 c-7 -11 -14 -17 -17 -15 -2 3 1
11 7 18 7 8 8 18 4 22 -4 5 -1 5 5 1 10 -5 10 -11 1 -26z m-113 -188 c5 -27
-16 -45 -32 -27 -9 10 -8 14 8 18 14 4 17 10 12 24 -3 10 -3 15 1 12 4 -4 8
-16 11 -27z m-163 -41 c16 9 19 8 13 -2 -6 -9 -3 -11 8 -6 11 4 20 -1 27 -16
11 -21 11 -21 -4 -3 -16 20 -16 20 -16 0 -1 -23 -30 -65 -31 -43 0 8 -4 4 -9
-8 -5 -13 -14 -23 -19 -23 -6 0 -8 -8 -4 -17 7 -19 5 -18 -17 10 -7 10 -9 17
-4 16 22 -4 34 2 34 19 0 11 -3 13 -8 6 -5 -9 -11 -8 -20 2 -8 9 -9 14 -2 14
7 0 9 8 5 21 -7 21 16 49 23 29 2 -6 11 -6 24 1z m79 -28 c13 -16 12 -17 -3
-4 -10 7 -18 15 -18 17 0 8 8 3 21 -13z m77 4 c8 -10 6 -13 -7 -13 -11 0 -17
6 -14 13 3 7 6 13 8 13 1 0 7 -6 13 -13z m-133 -96 c-6 -5 -25 10 -25 20 0 5
6 4 14 -3 8 -7 12 -15 11 -17z"/>
<path d="M1714 4176 c1 -18 7 -22 26 -21 36 2 35 39 -1 42 -22 1 -27 -2 -25
-21z m42 -5 c2 -8 1 -8 -3 0 -4 8 -7 8 -13 -1 -5 -9 -9 -8 -13 3 -4 10 0 14
11 13 9 -2 17 -8 18 -15z"/>
<path d="M2592 4536 c4 -5 0 -15 -10 -23 -11 -10 -12 -12 -2 -8 8 4 5 -2 -8
-12 -20 -16 -20 -19 -5 -19 10 -1 23 -3 28 -5 6 -2 10 1 10 6 0 6 -4 9 -10 7
-5 -2 -2 5 8 16 17 18 17 20 0 33 -10 7 -15 9 -11 5z"/>
<path d="M1945 4350 c-10 -11 -15 -20 -11 -20 4 0 2 -9 -4 -19 -7 -15 -7 -22
2 -27 7 -4 10 -4 6 1 -5 5 3 23 17 41 27 36 19 56 -10 24z m25 6 c0 -2 -8 -10
-17 -17 -16 -13 -17 -12 -4 4 13 16 21 21 21 13z"/>
<path d="M2470 4316 c0 -2 8 -10 18 -17 15 -13 16 -12 3 4 -13 16 -21 21 -21
13z"/>
<path d="M2459 4228 c-2 -19 -5 -36 -9 -40 -20 -26 22 -87 46 -67 6 5 13 8 15
6 3 -1 -3 5 -12 14 -12 11 -15 19 -8 26 7 7 4 15 -11 26 -12 8 -17 16 -11 18
7 3 7 9 1 19 -8 13 -10 12 -11 -2z m17 -60 c-14 -8 -15 -12 -4 -26 11 -15 11
-15 -4 -4 -13 10 -16 28 -9 49 1 1 8 0 17 -4 15 -5 15 -7 0 -15z"/>
<path d="M1860 4195 c0 -8 2 -15 4 -15 2 0 6 7 10 15 3 8 1 15 -4 15 -6 0 -10
-7 -10 -15z"/>
<path d="M2531 4154 c0 -11 3 -14 6 -6 3 7 2 16 -1 19 -3 4 -6 -2 -5 -13z"/>
<path d="M1846 3992 c-3 -5 1 -9 9 -9 8 0 12 4 9 9 -3 4 -7 8 -9 8 -2 0 -6 -4
-9 -8z"/>
<path d="M1790 3966 c0 -2 8 -10 18 -17 15 -13 16 -12 3 4 -13 16 -21 21 -21
13z"/>
<path d="M1845 3961 c-3 -5 -2 -12 3 -15 5 -3 9 1 9 9 0 17 -3 19 -12 6z"/>
<path d="M1713 3765 c0 -8 4 -12 9 -9 5 3 6 10 3 15 -9 13 -12 11 -12 -6z"/>
<path d="M1669 3718 c-5 -18 -6 -38 -1 -34 7 8 12 36 6 36 -2 0 -4 -1 -5 -2z"/>
<path d="M1645 3671 c3 -5 1 -12 -5 -16 -5 -3 -10 -1 -10 5 0 20 -40 -27 -49
-56 -9 -33 -1 -75 14 -75 6 0 11 9 13 21 2 12 8 18 15 14 8 -5 8 -2 0 7 -15
16 -17 53 -3 44 6 -4 8 -10 5 -15 -3 -5 0 -12 6 -16 7 -4 9 -3 6 3 -9 14 17
35 29 25 5 -4 1 2 -9 14 -20 24 -11 40 12 22 10 -8 9 -4 -3 10 -19 22 -32 30
-21 13z m-1 -52 c-8 -13 -24 -1 -24 18 0 13 3 13 15 3 8 -7 12 -16 9 -21z
m-41 -31 c-4 -59 -8 -69 -15 -36 -4 21 8 88 16 88 2 0 2 -23 -1 -52z"/>
<path d="M1552 3590 c0 -14 2 -19 5 -12 2 6 2 18 0 25 -3 6 -5 1 -5 -13z"/>
<path d="M1623 3534 c0 -9 4 -11 12 -4 7 5 14 9 16 7 2 -1 3 0 1 2 -7 11 -29
7 -29 -5z"/>
<path d="M1550 3493 c0 -31 33 -70 60 -71 8 -1 34 -5 58 -10 54 -12 54 0 1 56
-22 23 -41 42 -42 42 -1 1 -19 3 -39 6 -36 5 -38 4 -38 -23z"/>
<path d="M1635 3102 c-11 -25 -13 -52 -3 -46 4 3 8 14 8 24 0 10 5 20 12 22 8
3 9 6 1 11 -6 4 -14 -1 -18 -11z"/>
<path d="M1893 2895 c-3 -9 -4 -17 -2 -19 2 -2 23 -20 46 -39 l42 -35 53 15
c105 30 98 50 -25 76 -96 21 -106 21 -114 2z"/>
<path d="M1665 2761 c-3 -5 -2 -12 3 -15 5 -3 9 1 9 9 0 17 -3 19 -12 6z"/>
</g>
</svg>
